<?xml version="1.0" encoding="utf-8"?>
<!-- Generator: Adobe Illustrator 27.5.0, SVG Export Plug-In . SVG Version: 6.00 Build 0)  -->
<svg version="1.1" xmlns="http://www.w3.org/2000/svg" xmlns:xlink="http://www.w3.org/1999/xlink" x="0px" y="0px"
	 viewBox="0 0 500 500" style="enable-background:new 0 0 500 500;" xml:space="preserve">
<g id="BACKGROUND">
	<rect style="fill:#DBF6FF;" width="500" height="500"/>
</g>
<g id="OBJECTS">
	
		<text transform="matrix(1 0 0 1 172.549 347.788)" style="fill:#8F3569; font-family:'Dosis-Bold'; font-size:41.2261px; letter-spacing:12;">ERROR</text>
	
		<text transform="matrix(1 0 0 1 191.0929 364.4921)" style="fill:#FD2D7A; font-family:'Dosis-Medium'; font-size:10px; letter-spacing:4;">PAGE NOT FOUND!</text>
	<g>
		<g>
			<g>
				<path style="fill:#FD2D7A;" d="M189.258,242.034h-46.461c-0.917,0-1.659-0.743-1.659-1.659c0-0.917,0.743-1.659,1.659-1.659
					h46.461c0.916,0,1.659,0.743,1.659,1.659C190.917,241.292,190.174,242.034,189.258,242.034z"/>
			</g>
			<g>
				<path style="fill:#FF90BA;" d="M136.84,242.034c-2.968,0-5.384-2.414-5.386-5.382l-0.004-4.729
					c-0.001-0.916,0.742-1.66,1.658-1.661h0.001c0.916,0,1.659,0.742,1.659,1.658l0.004,4.729c0.001,1.139,0.928,2.066,2.067,2.066
					c0.917,0,1.659,0.743,1.659,1.659C138.499,241.292,137.756,242.034,136.84,242.034z"/>
			</g>
			<g>
				<path style="fill:#A7B8FE;" d="M134.974,226.514c-0.215,0-0.434-0.042-0.645-0.131c-0.844-0.356-1.24-1.329-0.883-2.174
					l20.936-49.612c0.356-0.845,1.33-1.241,2.174-0.884c0.844,0.356,1.24,1.329,0.883,2.174l-20.936,49.612
					C136.236,226.133,135.621,226.514,134.974,226.514z"/>
			</g>
			<g>
				<path style="fill:#FD2D7A;" d="M178.452,185.582c-0.916,0-1.659-0.742-1.659-1.658l-0.033-44.973
					c0-0.478-0.187-0.928-0.525-1.266c-0.338-0.338-0.788-0.524-1.266-0.524c0,0-0.001,0-0.001,0
					c-0.721,0.001-1.368,0.43-1.648,1.094l-11.792,27.943c-0.356,0.845-1.33,1.24-2.174,0.883c-0.844-0.356-1.24-1.329-0.883-2.174
					l11.791-27.942c0.799-1.896,2.646-3.122,4.704-3.123c0.001,0,0.003,0,0.003,0c1.364,0,2.646,0.531,3.611,1.494
					c0.966,0.965,1.498,2.247,1.499,3.613l0.033,44.973c0.001,0.917-0.742,1.66-1.658,1.661H178.452z"/>
			</g>
			<g>
				<path style="fill:#8F3569;" d="M178.484,230.78c-0.916,0-1.659-0.742-1.659-1.658l-0.027-35.582
					c-0.001-0.916,0.742-1.66,1.658-1.661h0.001c0.916,0,1.659,0.742,1.659,1.658l0.027,35.582c0.001,0.917-0.742,1.66-1.658,1.661
					H178.484z"/>
			</g>
			<g>
				<path style="fill:#61BDDB;" d="M176.668,285.46c-7.991,0-14.495-6.498-14.501-14.491l-0.009-13.308l-30.335,0.022
					c-0.004,0-0.008,0-0.012,0c-8.865,0-16.08-7.209-16.086-16.075c-0.001-0.917,0.742-1.66,1.658-1.661c0,0,0.001,0,0.001,0
					c0.916,0,1.659,0.742,1.659,1.658c0.005,7.037,5.732,12.758,12.767,12.758c0.004,0,0.006,0,0.009,0l31.995-0.023
					c0,0,0.001,0,0.001,0c0.44,0,0.862,0.174,1.173,0.485c0.311,0.311,0.486,0.733,0.487,1.173l0.011,14.968
					c0.005,6.163,5.02,11.174,11.182,11.174c0.003,0,0.005,0,0.008,0l3.939-0.003c6.166-0.005,11.179-5.024,11.174-11.19
					l-0.011-14.968c-0.001-0.917,0.742-1.66,1.658-1.661h0.001c0.916,0,1.659,0.742,1.66,1.658l0.011,14.968
					c0.006,7.996-6.494,14.505-14.49,14.511l-3.939,0.003C176.675,285.46,176.672,285.46,176.668,285.46z"/>
			</g>
			<g>
				<path style="fill:#FD2D7A;" d="M204.819,247.229c-0.916,0-1.658-0.742-1.659-1.658l-0.013-14.175
					c-0.002-3.096-2.522-5.614-5.617-5.614c-0.002,0-0.003,0-0.004,0l-4.11,0.003h-0.001c-0.44,0-0.862-0.175-1.173-0.486
					c-0.312-0.311-0.487-0.733-0.487-1.174v-6.83c0-0.917,0.743-1.659,1.659-1.659c0.917,0,1.659,0.743,1.659,1.659v5.169
					l2.449-0.002c0.002,0,0.005,0,0.007,0c4.924,0,8.932,4.004,8.936,8.93l0.013,14.175c0.001,0.917-0.742,1.66-1.658,1.661
					C204.82,247.229,204.819,247.229,204.819,247.229z"/>
			</g>
			<g>
				<path style="fill:#FF90BA;" d="M193.401,194.495c-0.916,0-1.659-0.742-1.659-1.658l-0.046-53.48
					c-0.001-0.916,0.742-1.66,1.658-1.661h0.001c0.916,0,1.659,0.742,1.66,1.658l0.046,53.48c0.001,0.916-0.741,1.66-1.658,1.661
					C193.402,194.495,193.402,194.495,193.401,194.495z"/>
			</g>
			<g>
				<path style="fill:#FD2D7A;" d="M193.344,134.15c-0.916,0-1.659-0.743-1.659-1.659v-6.959c-0.001-1.828-1.49-3.315-3.319-3.315
					c-0.001,0-0.002,0-0.002,0l-22.294,0.016c-1.337,0.001-2.536,0.797-3.055,2.028l-2.913,6.904
					c-0.356,0.844-1.329,1.24-2.174,0.883c-0.844-0.356-1.24-1.329-0.883-2.174l2.913-6.904c1.039-2.462,3.437-4.055,6.111-4.057
					l22.293-0.016c0.002,0,0.003,0,0.005,0c3.658,0,6.635,2.975,6.638,6.633v6.96C195.003,133.408,194.26,134.15,193.344,134.15z"/>
			</g>
			<g>
				<path style="fill:#A7B8FE;" d="M119.989,223.613c-0.215,0-0.434-0.042-0.645-0.131c-0.844-0.356-1.24-1.329-0.883-2.174
					l35.425-83.951c0.356-0.845,1.329-1.241,2.174-0.884c0.844,0.356,1.24,1.329,0.883,2.174l-35.425,83.951
					C121.251,223.232,120.635,223.613,119.989,223.613z"/>
			</g>
			<g>
				<path style="fill:#A7B8FE;" d="M192.007,247.684h-8.516c-0.917,0-1.659-0.743-1.659-1.659c0-0.917,0.743-1.659,1.659-1.659
					h8.516c0.318,0,0.618-0.125,0.843-0.35c0.226-0.226,0.35-0.526,0.349-0.845l-0.004-6.232c-0.001-0.658-0.537-1.194-1.195-1.194
					h-0.001l-3.553,0.003c-0.002,0-0.004,0-0.005,0c-1.771,0-3.437-0.689-4.69-1.941c-1.255-1.253-1.946-2.919-1.948-4.692
					l-0.039-55.132c-0.001-0.917,0.742-1.66,1.658-1.661c0.001,0,0.001,0,0.001,0c0.916,0,1.659,0.742,1.66,1.658l0.039,55.132
					c0.001,1.829,1.49,3.317,3.319,3.317c0.001,0,0.002,0,0.002,0l3.554-0.003c0.001,0,0.002,0,0.003,0
					c2.488,0,4.512,2.023,4.514,4.511l0.004,6.232c0.001,1.205-0.468,2.339-1.319,3.192
					C194.346,247.212,193.213,247.683,192.007,247.684z"/>
			</g>
			<g>
				<path style="fill:#61BDDB;" d="M178.636,275.502c-1.738,0-3.372-0.676-4.603-1.904c-1.231-1.23-1.91-2.865-1.911-4.605
					l-0.013-17.976c-0.001-1.829-1.49-3.317-3.319-3.317c-0.001,0-0.002,0-0.002,0l-32.216,0.023c-0.003,0-0.006,0-0.008,0
					c-5.999,0-10.882-4.878-10.887-10.879l-0.005-6.682c0-0.222,0.044-0.442,0.131-0.646l42.044-99.634
					c0.259-0.614,0.861-1.014,1.527-1.014l10.189-0.007c0.002,0,0.003,0,0.005,0c1.464,0,2.84,0.569,3.876,1.604
					c1.037,1.035,1.609,2.413,1.61,3.878l0.018,22.275c0.001,0.917-0.742,1.66-1.658,1.661h-0.001c-0.916,0-1.659-0.742-1.659-1.658
					l-0.018-22.275c0-0.579-0.226-1.123-0.636-1.532c-0.409-0.409-0.953-0.634-1.531-0.634h-0.002l-9.089,0.006l-41.485,98.311
					l0.004,6.346c0.003,4.171,3.398,7.562,7.568,7.562c0.002,0,0.004,0,0.006,0l32.216-0.023c0.002,0,0.003,0,0.005,0
					c3.658,0,6.635,2.975,6.637,6.633l0.013,17.976c0.001,0.854,0.333,1.656,0.937,2.259c0.604,0.602,1.405,0.934,2.258,0.934
					c0.001,0,0.002,0,0.002,0c0.854-0.001,1.656-0.334,2.26-0.937c0.603-0.604,0.935-1.407,0.934-2.26l-0.013-17.977
					c-0.001-0.917,0.742-1.66,1.658-1.661h0.001c0.916,0,1.659,0.742,1.659,1.658l0.013,17.977c0.001,1.74-0.675,3.376-1.905,4.607
					c-1.229,1.231-2.865,1.91-4.604,1.911C178.639,275.502,178.638,275.502,178.636,275.502z"/>
			</g>
			<g>
				<path style="fill:#FF90BA;" d="M150.422,203.84c-0.215,0-0.433-0.042-0.644-0.13c-0.844-0.356-1.241-1.329-0.885-2.174
					l23.33-55.388c0.356-0.844,1.328-1.24,2.173-0.885c0.844,0.356,1.241,1.329,0.885,2.173l-23.33,55.388
					C151.685,203.458,151.069,203.84,150.422,203.84z"/>
			</g>
			<g>
				<path style="fill:#61BDDB;" d="M144.468,235.777c-2.229,0-4.295-1.108-5.529-2.965c-1.234-1.857-1.454-4.193-0.588-6.25
					l6.829-16.212c0.355-0.844,1.327-1.241,2.173-0.885c0.844,0.355,1.241,1.329,0.885,2.173l-6.829,16.212
					c-0.433,1.028-0.323,2.196,0.294,3.125c0.616,0.928,1.65,1.482,2.764,1.482c0.001,0,0.001,0,0.003,0l24.306-0.018
					c0.887-0.001,1.72-0.346,2.346-0.974c0.626-0.628,0.971-1.461,0.97-2.348l-0.042-57.589c-0.001-0.917,0.742-1.66,1.658-1.661
					c0.001,0,0.001,0,0.001,0c0.916,0,1.659,0.742,1.66,1.658l0.042,57.589c0.003,3.66-2.973,6.64-6.633,6.643l-24.306,0.018
					C144.472,235.777,144.47,235.777,144.468,235.777z"/>
			</g>
			<g>
				<path style="fill:#A7B8FE;" d="M177.707,280.482c-5.821,0.001-10.558-4.733-10.562-10.554l-0.014-13.606
					c-0.001-0.916,0.741-1.66,1.658-1.661h0.002c0.915,0,1.658,0.742,1.659,1.658l0.014,13.606c0.003,3.992,3.252,7.238,7.243,7.238
					c0.002,0,0.003,0,0.005,0l1.861-0.001c3.994-0.003,7.24-3.255,7.238-7.248c-0.001-0.917,0.742-1.66,1.658-1.661
					c0,0,0.001,0,0.001,0c0.916,0,1.659,0.742,1.66,1.658c0.004,5.823-4.73,10.565-10.554,10.57l-1.862,0.001
					C177.712,280.482,177.709,280.482,177.707,280.482z"/>
			</g>
			<g>
				<path style="fill:#8F3569;" d="M188.465,263.123c-0.916,0-1.659-0.742-1.659-1.658l-0.009-10.458
					c0-0.44,0.174-0.863,0.485-1.174c0.311-0.311,0.733-0.486,1.173-0.487l5.826-0.004c2.151-0.002,3.9-1.753,3.898-3.904
					l-0.008-10.776c-0.002-2.15-1.751-3.898-3.901-3.898c-0.001,0-0.002,0-0.003,0l-5.826,0.004c0,0-0.001,0-0.001,0
					c-0.44,0-0.862-0.174-1.173-0.485c-0.311-0.311-0.486-0.733-0.487-1.173l-0.071-98.838c-0.001-1.695-1.381-3.074-3.076-3.074
					c-0.001,0-0.001,0-0.001,0l-16.459,0.012l-10.211,24.199c-0.356,0.844-1.33,1.24-2.174,0.883
					c-0.844-0.356-1.24-1.329-0.883-2.174l10.639-25.212c0.259-0.614,0.861-1.014,1.527-1.014l17.558-0.013c0.001,0,0.003,0,0.004,0
					c3.524,0,6.393,2.866,6.395,6.39l0.07,97.178l4.167-0.003c0.002,0,0.004,0,0.005,0c3.979,0,7.217,3.235,7.22,7.214l0.008,10.776
					c0.003,3.981-3.234,7.222-7.215,7.225l-4.167,0.003l0.007,8.799c0.001,0.917-0.742,1.66-1.658,1.661H188.465z"/>
			</g>
			<g>
				<path style="fill:#FD2D7A;" d="M141.658,185.066c-0.215,0-0.434-0.042-0.645-0.131c-0.844-0.356-1.24-1.329-0.884-2.174
					l11.858-28.1c0.356-0.845,1.33-1.241,2.174-0.883c0.844,0.356,1.24,1.329,0.883,2.174l-11.857,28.1
					C142.92,184.686,142.304,185.066,141.658,185.066z"/>
			</g>
			<g>
				<path style="fill:#8F3569;" d="M134.906,252.703c-7.828,0-14.2-6.366-14.206-14.195l-0.007-9.351
					c0-0.222,0.044-0.442,0.131-0.647l13.11-31.067c0.356-0.845,1.33-1.241,2.174-0.883c0.844,0.356,1.24,1.329,0.883,2.174
					l-12.979,30.757l0.007,9.015c0.004,6,4.888,10.879,10.887,10.879c0.003,0,0.005,0,0.008,0l17.055-0.012c0.001,0,0.001,0,0.001,0
					c0.916,0,1.659,0.742,1.66,1.658c0.001,0.917-0.742,1.66-1.658,1.661l-17.055,0.012
					C134.913,252.703,134.91,252.703,134.906,252.703z"/>
			</g>
			<g>
				<path style="fill:#8F3569;" d="M147.177,230.797c-1.161,0-2.237-0.577-2.879-1.544c-0.643-0.968-0.757-2.184-0.306-3.255
					l20.804-49.392c0.545-1.294,1.889-2.002,3.263-1.726c1.376,0.277,2.338,1.452,2.339,2.855l0.035,48.482v0
					c0.002,2.516-2.044,4.564-4.56,4.566l-18.693,0.014C147.179,230.797,147.178,230.797,147.177,230.797z M167.079,179.733
					l-20.029,47.553c-0.009,0.021-0.029,0.068,0.012,0.13c0.041,0.062,0.097,0.062,0.115,0.062l18.693-0.014
					c0.686,0,1.243-0.559,1.243-1.245L167.079,179.733z"/>
			</g>
			<g>
				<path style="fill:#FF90BA;" d="M178.499,270.499c-0.916,0-1.659-0.742-1.659-1.658l-0.016-22.223
					c-0.001-0.917,0.742-1.66,1.658-1.661c0.001,0,0.001,0,0.001,0c0.916,0,1.659,0.742,1.66,1.658l0.015,22.223
					c0.001,0.917-0.742,1.66-1.658,1.661H178.499z"/>
			</g>
			<path style="fill:#FF90BA;" d="M195.039,199.325c0,0.913-0.74,1.652-1.652,1.652s-1.652-0.74-1.652-1.652s0.74-1.652,1.652-1.652
				S195.039,198.413,195.039,199.325z"/>
			<circle style="fill:#8F3569;" cx="178.484" cy="234.118" r="1.652"/>
			<path style="fill:#FD2D7A;" d="M206.471,252.031c0,0.913-0.74,1.652-1.652,1.652c-0.913,0-1.652-0.74-1.652-1.652
				s0.74-1.652,1.652-1.652C205.732,250.379,206.471,251.118,206.471,252.031z"/>
			<path style="fill:#A7B8FE;" d="M119.036,234.943c0,0.913-0.74,1.652-1.652,1.652c-0.913,0-1.652-0.74-1.652-1.652
				c0-0.912,0.74-1.652,1.652-1.652C118.296,233.29,119.036,234.03,119.036,234.943z"/>
			<path style="fill:#FD2D7A;" d="M139.915,191.508c0,0.913-0.74,1.652-1.652,1.652c-0.913,0-1.652-0.74-1.652-1.652
				c0-0.913,0.74-1.652,1.652-1.652C139.175,189.855,139.915,190.595,139.915,191.508z"/>
			<path style="fill:#FD2D7A;" d="M159.534,170.621c0,0.913-0.74,1.652-1.652,1.652s-1.652-0.74-1.652-1.652s0.74-1.652,1.652-1.652
				S159.534,169.709,159.534,170.621z"/>
			<path style="fill:#8F3569;" d="M159.926,251.055c0,0.913-0.74,1.652-1.652,1.652c-0.913,0-1.652-0.74-1.652-1.652
				s0.74-1.652,1.652-1.652C159.187,249.403,159.926,250.143,159.926,251.055z"/>
			<path style="fill:#A7B8FE;" d="M185.206,166.554c0,0.913-0.74,1.652-1.652,1.652s-1.652-0.74-1.652-1.652
				c0-0.913,0.74-1.652,1.652-1.652S185.206,165.642,185.206,166.554z"/>
			<g>
				<path style="fill:#FF90BA;" d="M173.753,167.212c-0.917,0-1.659-0.743-1.659-1.659v-3.131c0-0.917,0.743-1.659,1.659-1.659
					c0.917,0,1.659,0.743,1.659,1.659v3.131C175.412,166.47,174.669,167.212,173.753,167.212z"/>
			</g>
			<g>
				<path style="fill:#FF90BA;" d="M193.344,212.309c-0.916,0-1.659-0.743-1.659-1.659v-4.952c0-0.916,0.743-1.659,1.659-1.659
					c0.917,0,1.659,0.743,1.659,1.659v4.952C195.003,211.566,194.26,212.309,193.344,212.309z"/>
			</g>
		</g>
		<g>
			<g>
				<path style="fill:#A7B8FE;" d="M228.793,280.605c-0.282,0-0.568-0.071-0.829-0.223c-11.026-6.375-16.855-18.52-16.855-35.122
					v-62.992c0-0.917,0.743-1.659,1.659-1.659c0.917,0,1.659,0.743,1.659,1.659v62.992c0,15.349,5.255,26.501,15.197,32.25
					c0.793,0.458,1.065,1.473,0.606,2.267C229.924,280.308,229.366,280.605,228.793,280.605z"/>
			</g>
			<g>
				<path style="fill:#61BDDB;" d="M249.337,285.458c-0.917,0-1.659-0.743-1.659-1.659c0-0.917,0.743-1.659,1.659-1.659
					c22.511,0,34.909-13.098,34.909-36.879c0-0.916,0.743-1.659,1.659-1.659c0.917,0,1.659,0.743,1.659,1.659
					C287.565,270.806,273.631,285.458,249.337,285.458z"/>
			</g>
			<g>
				<path style="fill:#61BDDB;" d="M285.905,220.648c-0.917,0-1.659-0.743-1.659-1.659v-48.367c0-0.917,0.743-1.659,1.659-1.659
					c0.917,0,1.659,0.743,1.659,1.659v48.367C287.565,219.905,286.822,220.648,285.905,220.648z"/>
			</g>
			<g>
				<path style="fill:#8F3569;" d="M285.905,160.762c-0.917,0-1.659-0.743-1.659-1.659c0-23.782-12.397-36.88-34.909-36.88
					c-22.511,0-34.908,13.098-34.908,36.88c0,0.917-0.743,1.659-1.659,1.659c-0.917,0-1.659-0.743-1.659-1.659
					c0-25.547,13.933-40.198,38.227-40.198c24.294,0,38.228,14.652,38.228,40.198C287.565,160.019,286.822,160.762,285.905,160.762z
					"/>
			</g>
			<path style="fill:#8F3569;" d="M225.061,238.177c0,0.913-0.74,1.652-1.652,1.652c-0.913,0-1.652-0.74-1.652-1.652
				c0-0.913,0.74-1.652,1.652-1.652C224.321,236.525,225.061,237.264,225.061,238.177z"/>
			<path style="fill:#8F3569;" d="M287.557,164.862c0,0.913-0.74,1.652-1.652,1.652c-0.913,0-1.652-0.74-1.652-1.652
				c0-0.913,0.74-1.652,1.652-1.652C286.817,163.21,287.557,163.949,287.557,164.862z"/>
			<circle style="fill:#61BDDB;" cx="269.43" cy="154.303" r="1.652"/>
			<path style="fill:#61BDDB;" d="M229.069,133.713c0,0.913-0.74,1.652-1.652,1.652c-0.912,0-1.652-0.74-1.652-1.652
				s0.74-1.652,1.652-1.652C228.33,132.061,229.069,132.801,229.069,133.713z"/>
			<path style="fill:#A7B8FE;" d="M238.477,282.298c0,0.913-0.74,1.652-1.652,1.652c-0.913,0-1.652-0.74-1.652-1.652
				c0-0.913,0.74-1.652,1.652-1.652C237.737,280.645,238.477,281.385,238.477,282.298z"/>
			<g>
				<path style="fill:#FF90BA;" d="M249.337,279.691c-20.951,0-32.967-12.631-32.967-34.654v-30.582
					c0-0.917,0.743-1.659,1.659-1.659c0.917,0,1.659,0.743,1.659,1.659v30.582c0,20.207,10.529,31.335,29.648,31.335
					s29.648-11.128,29.648-31.335v-85.712c0-9.811-2.442-17.499-7.257-22.851c-0.613-0.681-0.557-1.731,0.124-2.344
					c0.681-0.613,1.731-0.558,2.343,0.124c5.381,5.98,8.109,14.415,8.109,25.071v85.712
					C282.304,267.06,270.288,279.691,249.337,279.691z"/>
			</g>
			<g>
				<path style="fill:#A7B8FE;" d="M268.139,132.893c-0.313,0-0.628-0.088-0.908-0.272c-4.692-3.074-10.713-4.632-17.894-4.632
					c-6.634,0-12.29,1.334-16.811,3.964c-0.792,0.461-1.808,0.192-2.269-0.6c-0.461-0.792-0.192-1.808,0.6-2.269
					c5.035-2.929,11.253-4.414,18.48-4.414c7.838,0,14.47,1.741,19.713,5.175c0.766,0.502,0.981,1.531,0.479,2.297
					C269.21,132.629,268.68,132.893,268.139,132.893z"/>
			</g>
			<g>
				<path style="fill:#61BDDB;" d="M218.029,207.841c-0.917,0-1.659-0.743-1.659-1.659v-46.857c0-8.459,1.743-15.574,5.179-21.147
					c0.482-0.78,1.504-1.022,2.283-0.542c0.78,0.481,1.023,1.503,0.542,2.283c-3.109,5.042-4.686,11.571-4.686,19.406v46.857
					C219.689,207.099,218.946,207.841,218.029,207.841z"/>
			</g>
			<g>
				<path style="fill:#FD2D7A;" d="M223.409,233.582c-0.916,0-1.659-0.743-1.659-1.659v-72.536
					c0-18.421,10.055-28.985,27.587-28.985c17.532,0,27.587,10.565,27.587,28.985v29.717c0,0.917-0.743,1.659-1.659,1.659
					c-0.917,0-1.659-0.743-1.659-1.659v-29.717c0-16.551-8.618-25.667-24.269-25.667c-15.65,0-24.269,9.115-24.269,25.667v72.536
					C225.068,232.839,224.325,233.582,223.409,233.582z"/>
			</g>
			<g>
				<path style="fill:#8F3569;" d="M249.337,273.961c-17.532,0-27.587-10.564-27.587-28.985c0-0.917,0.743-1.659,1.659-1.659
					c0.917,0,1.659,0.743,1.659,1.659c0,16.551,8.619,25.666,24.269,25.666c4.47,0,8.414-0.74,11.723-2.199
					c0.838-0.37,1.818,0.01,2.188,0.848c0.37,0.839-0.01,1.818-0.848,2.188C258.666,273.126,254.271,273.961,249.337,273.961z"/>
			</g>
			<g>
				<path style="fill:#8F3569;" d="M269.156,266.19c-0.385,0-0.772-0.134-1.086-0.405c-0.693-0.6-0.768-1.648-0.168-2.341
					c3.784-4.368,5.703-10.582,5.703-18.468v-29.277c0-0.917,0.743-1.659,1.659-1.659c0.917,0,1.659,0.743,1.659,1.659v29.277
					c0,8.708-2.191,15.653-6.513,20.641C270.083,265.996,269.621,266.19,269.156,266.19z"/>
			</g>
			<g>
				<path style="fill:#A7B8FE;" d="M249.337,268.021c-2.779,0-5.365-0.333-7.686-0.991c-0.882-0.25-1.394-1.167-1.144-2.049
					c0.25-0.882,1.168-1.392,2.049-1.144c2.026,0.574,4.308,0.865,6.781,0.865c12.176,0,18.881-7.098,18.881-19.989v-85.064
					c0-0.916,0.743-1.659,1.659-1.659c0.917,0,1.659,0.743,1.659,1.659v85.064C271.537,259.525,263.446,268.021,249.337,268.021z"/>
			</g>
			<g>
				<path style="fill:#61BDDB;" d="M228.796,189.603c-0.917,0-1.659-0.743-1.659-1.659v-28.295c0-14.812,8.092-23.307,22.2-23.307
					c10.115,0,17.151,4.291,20.346,12.408c0.336,0.853-0.084,1.816-0.936,2.152c-0.854,0.335-1.816-0.084-2.152-0.936
					c-2.654-6.741-8.622-10.305-17.258-10.305c-12.176,0-18.881,7.099-18.881,19.988v28.295
					C230.456,188.86,229.713,189.603,228.796,189.603z"/>
			</g>
			<g>
				<path style="fill:#A7B8FE;" d="M234.589,262.874c-0.417,0-0.834-0.156-1.156-0.469c-4.178-4.057-6.296-10.009-6.296-17.691
					v-49.642c0-0.917,0.743-1.659,1.659-1.659c0.917,0,1.659,0.743,1.659,1.659v49.642c0,6.751,1.78,11.902,5.289,15.311
					c0.658,0.638,0.673,1.689,0.034,2.346C235.454,262.705,235.022,262.874,234.589,262.874z"/>
			</g>
			<g>
				<path style="fill:#61BDDB;" d="M264.478,227.286c-0.917,0-1.659-0.743-1.659-1.659v-45.649c0-0.917,0.743-1.659,1.659-1.659
					c0.917,0,1.659,0.743,1.659,1.659v45.649C266.138,226.543,265.395,227.286,264.478,227.286z"/>
			</g>
			<g>
				<path style="fill:#8F3569;" d="M264.478,174.924c-0.917,0-1.659-0.743-1.659-1.659v-12.883c0-9.354-4.662-14.298-13.482-14.298
					c-8.82,0-13.482,4.944-13.482,14.298c0,0.917-0.743,1.659-1.659,1.659c-0.916,0-1.659-0.743-1.659-1.659
					c0-11.196,6.124-17.617,16.801-17.617c10.677,0,16.801,6.421,16.801,17.617v12.883
					C266.138,174.182,265.395,174.924,264.478,174.924z"/>
			</g>
			<g>
				<path style="fill:#FF90BA;" d="M234.195,221.197c-0.916,0-1.659-0.743-1.659-1.659v-48.916c0-0.917,0.743-1.659,1.659-1.659
					c0.917,0,1.659,0.743,1.659,1.659v48.916C235.855,220.454,235.112,221.197,234.195,221.197z"/>
			</g>
			<g>
				<path style="fill:#8F3569;" d="M249.337,261.597c-10.677,0-16.801-6.421-16.801-17.617v-18.003c0-0.917,0.743-1.659,1.659-1.659
					c0.917,0,1.659,0.743,1.659,1.659v18.003c0,9.354,4.662,14.298,13.482,14.298c8.82,0,13.482-4.944,13.482-14.298v-10.851
					c0-0.917,0.743-1.659,1.659-1.659c0.917,0,1.659,0.743,1.659,1.659v10.851C266.138,255.176,260.014,261.597,249.337,261.597z"/>
			</g>
			<g>
				<path style="fill:#FD2D7A;" d="M249.337,255.343c-7.096,0-11.332-4.431-11.332-11.854v-82.295
					c0-7.423,4.236-11.854,11.332-11.854c7.096,0,11.333,4.431,11.333,11.854v82.295
					C260.669,250.911,256.433,255.343,249.337,255.343z M249.337,152.658c-5.317,0-8.014,2.872-8.014,8.535v82.295
					c0,5.664,2.696,8.535,8.014,8.535c5.317,0,8.014-2.872,8.014-8.535v-82.295C257.351,155.53,254.654,152.658,249.337,152.658z"/>
			</g>
			<g>
				<path style="fill:#8F3569;" d="M212.769,177.605c-0.917,0-1.659-0.743-1.659-1.659v-10.393c0-0.917,0.743-1.659,1.659-1.659
					c0.917,0,1.659,0.743,1.659,1.659v10.393C214.429,176.863,213.686,177.605,212.769,177.605z"/>
			</g>
			<g>
				<path style="fill:#61BDDB;" d="M285.905,240.043c-0.917,0-1.659-0.743-1.659-1.659v-11.079c0-0.917,0.743-1.659,1.659-1.659
					c0.917,0,1.659,0.743,1.659,1.659v11.079C287.565,239.3,286.822,240.043,285.905,240.043z"/>
			</g>
			<g>
				<path style="fill:#FD2D7A;" d="M275.265,208.62c-0.917,0-1.659-0.743-1.659-1.659v-11.299c0-0.917,0.743-1.659,1.659-1.659
					c0.917,0,1.659,0.743,1.659,1.659v11.299C276.924,207.877,276.181,208.62,275.265,208.62z"/>
			</g>
		</g>
		<g>
			<g>
				<path style="fill:#FD2D7A;" d="M362.721,242.034h-38.945c-0.917,0-1.659-0.743-1.659-1.659c0-0.917,0.743-1.659,1.659-1.659
					h38.945c0.917,0,1.659,0.743,1.659,1.659C364.38,241.292,363.637,242.034,362.721,242.034z"/>
			</g>
			<g>
				<path style="fill:#8F3569;" d="M312.216,242.034c-3.404,0-6.175-2.769-6.177-6.173l-0.003-3.938
					c0-0.726,0.143-1.432,0.424-2.099l17.948-42.532c0.357-0.845,1.33-1.24,2.174-0.883c0.845,0.356,1.24,1.329,0.884,2.174
					l-17.948,42.532c-0.108,0.256-0.163,0.528-0.163,0.807l0.003,3.936c0.001,1.575,1.283,2.857,2.859,2.857
					c0.916,0,1.659,0.743,1.659,1.659C313.876,241.292,313.133,242.034,312.216,242.034z"/>
			</g>
			<g>
				<path style="fill:#FD2D7A;" d="M353.85,208.62c-0.916,0-1.659-0.742-1.659-1.658l-0.047-68.012
					c-0.001-0.987-0.804-1.79-1.791-1.79c-0.001,0-0.001,0-0.001,0c-0.721,0.001-1.368,0.43-1.649,1.095l-17.877,42.367
					c-0.357,0.845-1.33,1.24-2.174,0.883c-0.845-0.356-1.24-1.329-0.884-2.174l17.878-42.367c0.801-1.896,2.647-3.122,4.704-3.123
					c0.001,0,0.003,0,0.004,0c2.816,0,5.108,2.29,5.11,5.106l0.047,68.012c0.001,0.917-0.741,1.66-1.658,1.661
					C353.851,208.62,353.851,208.62,353.85,208.62z"/>
			</g>
			<g>
				<path style="fill:#FF90BA;" d="M353.868,235.777c-0.916,0-1.659-0.742-1.659-1.658l-0.014-19.223
					c-0.001-0.916,0.741-1.66,1.658-1.661c0.001,0,0.001,0,0.001,0c0.917,0,1.659,0.742,1.66,1.658l0.014,19.223
					c0.001,0.917-0.742,1.66-1.658,1.661C353.868,235.777,353.868,235.777,353.868,235.777z"/>
			</g>
			<g>
				<path style="fill:#8F3569;" d="M352.052,285.46c-7.991,0-14.494-6.498-14.5-14.491l-0.01-13.308l-30.335,0.022
					c-0.004,0-0.009,0-0.012,0c-4.292,0-8.328-1.67-11.366-4.704c-3.041-3.036-4.717-7.075-4.72-11.371v-8.048
					c0-0.917,0.743-1.659,1.659-1.659c0.916,0,1.659,0.743,1.659,1.659v8.046c0.003,3.409,1.333,6.614,3.746,9.024
					c2.411,2.407,5.615,3.733,9.021,3.733c0.003,0,0.006,0,0.01,0l31.995-0.023c0.001,0,0.001,0,0.001,0
					c0.916,0,1.659,0.742,1.659,1.658l0.011,14.968c0.004,6.163,5.02,11.174,11.181,11.174c0.003,0,0.005,0,0.008,0l3.939-0.003
					c6.166-0.005,11.179-5.024,11.174-11.19l-0.011-14.968c0-0.44,0.174-0.863,0.486-1.174c0.31-0.311,0.732-0.486,1.173-0.487
					l2.807-0.002c3.816-0.003,6.918-3.11,6.916-6.925l-0.011-14.694c-0.001-0.917,0.741-1.66,1.658-1.661c0.001,0,0.001,0,0.001,0
					c0.917,0,1.659,0.742,1.66,1.658l0.011,14.694c0.004,5.646-4.586,10.242-10.232,10.247l-1.147,0.001l0.01,13.308
					c0.006,7.996-6.494,14.505-14.491,14.511l-3.939,0.003C352.059,285.46,352.055,285.46,352.052,285.46z"/>
			</g>
			<g>
				<path style="fill:#FF90BA;" d="M368.799,223.612c-0.917,0-1.659-0.743-1.659-1.659V204.44c0-0.917,0.743-1.659,1.659-1.659
					c0.917,0,1.659,0.743,1.659,1.659v17.512C370.459,222.869,369.716,223.612,368.799,223.612z"/>
			</g>
			<g>
				<path style="fill:#FF90BA;" d="M368.786,193.995c-0.916,0-1.659-0.742-1.659-1.658l-0.047-51.381
					c-0.001-0.917,0.742-1.66,1.658-1.661c0,0,0.001,0,0.001,0c0.916,0,1.659,0.742,1.659,1.658l0.047,51.381
					c0.001,0.917-0.742,1.66-1.658,1.661H368.786z"/>
			</g>
			<g>
				<path style="fill:#FD2D7A;" d="M307.106,195.807c-0.215,0-0.434-0.042-0.644-0.131c-0.845-0.356-1.24-1.33-0.884-2.174
					l29.763-70.532c1.04-2.462,3.439-4.055,6.111-4.057l22.294-0.016c0.001,0,0.003,0,0.005,0c1.771,0,3.436,0.689,4.69,1.941
					c1.254,1.253,1.946,2.919,1.947,4.692v9.052c0,0.916-0.743,1.659-1.659,1.659c-0.917,0-1.659-0.743-1.659-1.659v-9.051
					c-0.001-0.885-0.346-1.718-0.974-2.345c-0.627-0.626-1.46-0.97-2.345-0.97c-0.001,0-0.002,0-0.002,0l-22.294,0.016
					c-1.337,0.001-2.536,0.797-3.056,2.028l-29.763,70.532C308.368,195.427,307.753,195.807,307.106,195.807z"/>
			</g>
			<g>
				<path style="fill:#FF90BA;" d="M295.373,223.613c-0.215,0-0.434-0.042-0.644-0.131c-0.845-0.356-1.24-1.329-0.884-2.174
					l8.344-19.774c0.357-0.844,1.33-1.241,2.174-0.883c0.845,0.356,1.24,1.329,0.884,2.174l-8.344,19.774
					C296.635,223.232,296.02,223.613,295.373,223.613z"/>
			</g>
			<g>
				<path style="fill:#FD2D7A;" d="M358.812,186.145c-0.916,0-1.659-0.742-1.659-1.658l-0.019-27.133
					c-0.001-0.917,0.741-1.66,1.658-1.661c0.001,0,0.001,0,0.001,0c0.916,0,1.659,0.742,1.659,1.658l0.019,27.133
					c0.001,0.917-0.741,1.66-1.658,1.661C358.813,186.145,358.812,186.145,358.812,186.145z"/>
			</g>
			<g>
				<path style="fill:#61BDDB;" d="M354.02,275.502c-1.738,0-3.373-0.676-4.602-1.904c-1.232-1.23-1.91-2.865-1.911-4.605
					l-0.013-17.975c-0.002-1.829-1.491-3.317-3.319-3.317c-0.001,0-0.001,0-0.002,0l-32.216,0.023c-0.003,0-0.006,0-0.008,0
					c-2.905,0-5.637-1.13-7.693-3.183c-2.057-2.055-3.192-4.788-3.194-7.696l-0.005-6.682c0-0.222,0.044-0.442,0.13-0.647
					l42.044-99.634c0.259-0.614,0.861-1.014,1.528-1.014l10.033-0.007c0.001,0,0.003,0,0.005,0c1.505,0,2.921,0.586,3.986,1.649
					c1.067,1.065,1.655,2.481,1.655,3.988l0.009,11.529c0.001,0.917-0.742,1.66-1.658,1.661c-0.001,0-0.001,0-0.001,0
					c-0.916,0-1.659-0.742-1.659-1.658l-0.008-11.529c-0.001-0.621-0.242-1.204-0.681-1.642c-0.439-0.438-1.022-0.679-1.641-0.679
					c-0.001,0-0.001,0-0.002,0l-8.933,0.006l-41.486,98.311l0.005,6.346c0.001,2.022,0.79,3.922,2.22,5.35
					c1.429,1.427,3.328,2.213,5.348,2.213c0.002,0,0.004,0,0.006,0l32.216-0.023c0.002,0,0.003,0,0.005,0
					c3.657,0,6.634,2.974,6.638,6.632l0.013,17.976c0.001,0.854,0.333,1.656,0.937,2.259c0.603,0.602,1.405,0.934,2.257,0.934
					c0.001,0,0.002,0,0.003,0c0.854-0.001,1.656-0.334,2.26-0.937c0.603-0.604,0.934-1.406,0.933-2.26l-0.012-17.977
					c-0.002-1.773,0.687-3.44,1.94-4.695c1.253-1.255,2.919-1.946,4.692-1.948l2.444-0.002c1.271-0.001,2.304-1.036,2.304-2.307
					l-0.003-4.011c-0.001-0.616-0.24-1.195-0.676-1.63c-0.435-0.435-1.013-0.674-1.628-0.674c-0.001,0-0.001,0-0.002,0l-2.444,0.002
					c-0.002,0-0.003,0-0.005,0c-3.658,0-6.635-2.975-6.638-6.633l-0.028-38.179c-0.001-0.917,0.742-1.66,1.658-1.661
					c0.001,0,0.001,0,0.001,0c0.917,0,1.659,0.742,1.66,1.658l0.028,38.179c0.001,1.829,1.49,3.317,3.319,3.317
					c0.001,0,0.001,0,0.002,0l2.444-0.002c0.001,0,0.003,0,0.005,0c1.501,0,2.912,0.584,3.974,1.644
					c1.063,1.061,1.649,2.473,1.65,3.976l0.003,4.011c0.002,3.101-2.52,5.626-5.62,5.628l-2.444,0.002
					c-0.887,0.001-1.72,0.346-2.347,0.974c-0.626,0.627-0.97,1.461-0.97,2.347l0.012,17.977c0.002,1.74-0.675,3.376-1.904,4.607
					c-1.229,1.231-2.865,1.91-4.605,1.911C354.023,275.502,354.021,275.502,354.02,275.502z"/>
			</g>
			<g>
				<path style="fill:#61BDDB;" d="M319.852,235.777c-2.229,0-4.295-1.108-5.528-2.965c-1.235-1.857-1.455-4.193-0.589-6.25
					L338,168.956c0.356-0.845,1.326-1.241,2.173-0.885c0.845,0.356,1.241,1.329,0.885,2.173l-24.264,57.607
					c-0.433,1.028-0.323,2.196,0.294,3.125c0.616,0.928,1.65,1.482,2.764,1.482c0.001,0,0.002,0,0.003,0l17.195-0.012
					c0,0,0.001,0,0.001,0c0.916,0,1.659,0.742,1.659,1.658c0.001,0.917-0.742,1.66-1.658,1.661l-17.195,0.012
					C319.855,235.777,319.853,235.777,319.852,235.777z"/>
			</g>
			<g>
				<path style="fill:#8F3569;" d="M344.162,235.76c-0.916,0-1.659-0.742-1.659-1.658c-0.001-0.917,0.742-1.66,1.658-1.661
					c1.83-0.001,3.317-1.491,3.316-3.321L347.436,151c-0.001-0.917,0.742-1.66,1.659-1.66h0.001c0.916,0,1.659,0.742,1.659,1.658
					l0.042,78.12c0.003,3.66-2.973,6.639-6.632,6.642C344.163,235.76,344.163,235.76,344.162,235.76z"/>
			</g>
			<g>
				<path style="fill:#A7B8FE;" d="M353.091,280.482c-2.819,0-5.469-1.097-7.463-3.088c-1.996-1.994-3.096-4.645-3.098-7.466
					l-0.011-14.693c-0.001-1.41-1.148-2.556-2.557-2.556h-3.476c-0.917,0-1.659-0.743-1.659-1.659c0-0.917,0.743-1.659,1.659-1.659
					h3.476c3.238,0,5.874,2.634,5.876,5.872l0.011,14.693c0.003,3.992,3.251,7.238,7.243,7.238c0.001,0,0.003,0,0.005,0l1.862-0.001
					c3.994-0.003,7.24-3.255,7.238-7.248l-0.012-15.931c-0.001-1.238,0.48-2.403,1.355-3.279c0.875-0.876,2.039-1.359,3.277-1.36
					l2.804-0.002c1.055-0.001,2.045-0.412,2.79-1.158c0.745-0.746,1.154-1.737,1.154-2.791l-0.007-10.685
					c-0.002-2.175-1.772-3.944-3.947-3.944c-0.001,0-0.001,0-0.003,0l-5.781,0.004c-0.001,0-0.001,0-0.001,0
					c-0.44,0-0.861-0.174-1.173-0.485c-0.311-0.311-0.486-0.733-0.487-1.173l-0.071-98.808c-0.001-0.83-0.324-1.609-0.911-2.195
					c-0.587-0.585-1.366-0.908-2.194-0.908c-0.001,0-0.002,0-0.003,0l-16.429,0.012l-5.267,12.483
					c-0.357,0.845-1.331,1.24-2.174,0.883c-0.845-0.356-1.24-1.329-0.884-2.174l5.695-13.496c0.259-0.614,0.862-1.014,1.528-1.014
					l17.529-0.013c0.002,0,0.003,0,0.005,0c1.714,0,3.326,0.667,4.539,1.878c1.214,1.213,1.884,2.826,1.884,4.542l0.07,97.148
					l4.121-0.003c0.002,0,0.004,0,0.006,0c4.003,0,7.262,3.256,7.265,7.26l0.007,10.685c0.001,1.94-0.753,3.765-2.124,5.139
					c-1.371,1.374-3.195,2.131-5.136,2.132l-2.804,0.002c-0.352,0-0.682,0.137-0.931,0.386c-0.249,0.249-0.385,0.579-0.385,0.931
					l0.012,15.931c0.004,5.823-4.731,10.565-10.554,10.57l-1.862,0.001C353.095,280.482,353.093,280.482,353.091,280.482z"/>
			</g>
			<g>
				<path style="fill:#8F3569;" d="M327.406,160.505c-0.215,0-0.434-0.042-0.644-0.131c-0.845-0.356-1.24-1.329-0.884-2.174
					l5.676-13.452c0.356-0.844,1.329-1.24,2.174-0.883c0.845,0.356,1.24,1.329,0.884,2.174l-5.676,13.452
					C328.668,160.124,328.053,160.505,327.406,160.505z"/>
			</g>
			<g>
				<path style="fill:#8F3569;" d="M299.545,226.53c-0.215,0-0.434-0.042-0.644-0.131c-0.845-0.356-1.24-1.329-0.884-2.174
					l25.423-60.245c0.357-0.844,1.331-1.24,2.174-0.884c0.845,0.356,1.24,1.329,0.884,2.174l-25.422,60.245
					C300.807,226.149,300.192,226.53,299.545,226.53z"/>
			</g>
			<g>
				<path style="fill:#FD2D7A;" d="M310.29,252.703c-3.791,0-7.355-1.475-10.038-4.154c-2.685-2.681-4.165-6.247-4.167-10.042
					l-0.006-4.137c-0.001-0.916,0.741-1.66,1.657-1.662c0.001,0,0.002,0,0.003,0c0.915,0,1.658,0.742,1.659,1.657l0.006,4.139
					c0.002,2.909,1.136,5.642,3.194,7.697c2.056,2.053,4.788,3.183,7.693,3.183c0.003,0,0.005,0,0.008,0l17.055-0.012
					c0,0,0.001,0,0.001,0c0.916,0,1.659,0.742,1.659,1.658c0.001,0.917-0.742,1.66-1.658,1.661l-17.055,0.012
					C310.297,252.703,310.293,252.703,310.29,252.703z"/>
			</g>
			<g>
				<path style="fill:#A7B8FE;" d="M322.657,230.797c-1.181,0-2.277-0.588-2.931-1.572c-0.655-0.985-0.772-2.225-0.312-3.316
					l22.231-52.78c0.402-0.954,1.39-1.478,2.407-1.274c1.016,0.204,1.726,1.071,1.727,2.107l0.037,51.663v0
					c0.001,1.377-0.535,2.672-1.508,3.646c-0.973,0.975-2.267,1.512-3.644,1.513l-18.003,0.013
					C322.659,230.797,322.658,230.797,322.657,230.797z M342.463,179.733l-19.992,47.463c-0.01,0.025-0.042,0.1,0.018,0.191
					c0.06,0.09,0.128,0.077,0.169,0.09l18.002-0.013c0.491,0,0.952-0.192,1.298-0.539c0.347-0.347,0.537-0.808,0.537-1.299
					L342.463,179.733z"/>
			</g>
			<g>
				<path style="fill:#FF90BA;" d="M353.883,263.63c-0.916,0-1.659-0.742-1.659-1.658l-0.016-15.355
					c-0.001-0.917,0.742-1.66,1.657-1.661c0.001,0,0.001,0,0.001,0c0.917,0,1.659,0.742,1.66,1.658l0.016,15.355
					c0.001,0.917-0.741,1.661-1.657,1.661C353.884,263.63,353.883,263.63,353.883,263.63z"/>
			</g>
			<path style="fill:#FF90BA;" d="M370.423,198.582c0,0.913-0.74,1.652-1.652,1.652c-0.913,0-1.652-0.74-1.652-1.652
				s0.74-1.652,1.652-1.652C369.683,196.929,370.423,197.669,370.423,198.582z"/>
			<path style="fill:#8F3569;" d="M381.854,225.977c0,0.912-0.74,1.652-1.652,1.652s-1.652-0.74-1.652-1.652
				c0-0.913,0.74-1.653,1.652-1.653S381.854,225.064,381.854,225.977z"/>
			<circle style="fill:#FF90BA;" cx="353.875" cy="268.013" r="1.652"/>
			<path style="fill:#8F3569;" d="M319.35,240.375c0,0.913-0.74,1.652-1.652,1.652s-1.652-0.74-1.652-1.652
				c0-0.913,0.74-1.652,1.652-1.652S319.35,239.462,319.35,240.375z"/>
			<path style="fill:#FD2D7A;" d="M299.545,230.037c0,0.913-0.74,1.652-1.652,1.652c-0.913,0-1.652-0.74-1.652-1.652
				s0.74-1.652,1.652-1.652C298.806,228.385,299.545,229.124,299.545,230.037z"/>
			<path style="fill:#61BDDB;" d="M344.216,162.973c0,0.913-0.74,1.652-1.652,1.652s-1.652-0.74-1.652-1.652s0.74-1.652,1.652-1.652
				S344.216,162.06,344.216,162.973z"/>
			<path style="fill:#FD2D7A;" d="M360.59,150.999c0,0.913-0.74,1.652-1.652,1.652c-0.913,0-1.652-0.74-1.652-1.652
				s0.74-1.652,1.652-1.652C359.85,149.346,360.59,150.086,360.59,150.999z"/>
			<g>
				<g>
					<path style="fill:#FD2D7A;" d="M382.616,217.27c-0.425,0-0.849-0.162-1.173-0.486l-4.828-4.828
						c-0.648-0.648-0.648-1.699,0-2.346c0.648-0.648,1.698-0.648,2.347,0l4.828,4.828c0.648,0.648,0.648,1.699,0,2.347
						C383.465,217.108,383.041,217.27,382.616,217.27z"/>
				</g>
				<g>
					<path style="fill:#FD2D7A;" d="M377.788,217.27c-0.424,0-0.849-0.162-1.173-0.486c-0.648-0.648-0.648-1.699,0-2.347
						l4.828-4.828c0.648-0.648,1.698-0.648,2.346,0c0.648,0.648,0.648,1.699,0,2.346l-4.828,4.828
						C378.637,217.108,378.213,217.27,377.788,217.27z"/>
				</g>
			</g>
		</g>
	</g>
	<g>
		<path style="fill:#FD2D7A;" d="M374.391,296.614c0,1.375-1.115,2.489-2.489,2.489c-1.375,0-2.49-1.115-2.49-2.489
			c0-1.375,1.115-2.49,2.49-2.49C373.276,294.125,374.391,295.24,374.391,296.614z"/>
		<path style="fill:#FD2D7A;" d="M98.675,153.647c0,1.375-1.115,2.489-2.489,2.489c-1.375,0-2.489-1.115-2.489-2.489
			c0-1.375,1.115-2.489,2.489-2.489C97.561,151.157,98.675,152.272,98.675,153.647z"/>
		<path style="fill:#FF90BA;" d="M43.609,317c0,1.375-1.115,2.489-2.489,2.489c-1.375,0-2.489-1.115-2.489-2.489
			c0-1.375,1.115-2.49,2.489-2.49C42.494,314.511,43.609,315.625,43.609,317z"/>
		<path style="fill:#FF90BA;" d="M433.074,45.714c0,1.375-1.115,2.49-2.489,2.49s-2.489-1.115-2.489-2.49
			c0-1.375,1.115-2.489,2.489-2.489S433.074,44.339,433.074,45.714z"/>
		<path style="fill:#FF90BA;" d="M75.511,462.07c0,1.375-1.115,2.489-2.489,2.489c-1.375,0-2.49-1.115-2.49-2.489
			c0-1.375,1.115-2.489,2.49-2.489C74.397,459.58,75.511,460.695,75.511,462.07z"/>
		<path style="fill:#61BDDB;" d="M153.896,96.904l1.219-1.219c0.637-0.637,0.637-1.669,0-2.306c-0.636-0.637-1.67-0.637-2.306,0
			l-1.219,1.219l-1.219-1.219c-0.636-0.637-1.67-0.637-2.306,0c-0.637,0.637-0.637,1.669,0,2.306l1.219,1.219l-1.219,1.219
			c-0.637,0.637-0.637,1.669,0,2.306c0.318,0.319,0.736,0.478,1.153,0.478c0.417,0,0.835-0.159,1.153-0.478l1.219-1.219l1.219,1.219
			c0.318,0.319,0.736,0.478,1.153,0.478c0.417,0,0.835-0.159,1.153-0.478c0.637-0.637,0.637-1.669,0-2.306L153.896,96.904z"/>
		<path style="fill:#A7B8FE;" d="M469.878,261.479l1.758-1.758c0.918-0.918,0.918-2.406,0-3.324c-0.918-0.918-2.406-0.918-3.324,0
			l-1.758,1.758l-1.758-1.758c-0.918-0.918-2.406-0.918-3.324,0c-0.918,0.918-0.918,2.406,0,3.324l1.758,1.758l-1.758,1.758
			c-0.918,0.918-0.918,2.406,0,3.324c0.459,0.459,1.061,0.689,1.662,0.689c0.601,0,1.203-0.229,1.662-0.689l1.758-1.758l1.758,1.758
			c0.459,0.459,1.061,0.689,1.662,0.689c0.602,0,1.203-0.229,1.662-0.689c0.918-0.918,0.918-2.406,0-3.324L469.878,261.479z"/>
		<path style="fill:#A7B8FE;" d="M227.746,41.199l1.869-1.869c0.977-0.976,0.977-2.559,0-3.535c-0.976-0.976-2.559-0.976-3.535,0
			l-1.869,1.869l-1.869-1.869c-0.975-0.976-2.559-0.976-3.535,0c-0.977,0.976-0.977,2.559,0,3.535l1.869,1.869l-1.869,1.869
			c-0.977,0.976-0.977,2.559,0,3.535c0.488,0.488,1.128,0.732,1.768,0.732c0.64,0,1.28-0.244,1.768-0.732l1.869-1.869l1.869,1.869
			c0.488,0.488,1.128,0.732,1.768,0.732c0.64,0,1.28-0.244,1.768-0.732c0.977-0.976,0.977-2.559,0-3.535L227.746,41.199z"/>
		<path style="fill:#FD2D7A;" d="M117.663,344.794l1.488-1.488c0.778-0.778,0.778-2.037,0-2.815c-0.777-0.778-2.038-0.778-2.815,0
			l-1.488,1.488l-1.488-1.488c-0.777-0.778-2.038-0.778-2.815,0c-0.778,0.778-0.778,2.037,0,2.815l1.488,1.488l-1.488,1.488
			c-0.778,0.778-0.778,2.037,0,2.815c0.388,0.389,0.898,0.583,1.408,0.583c0.509,0,1.019-0.194,1.408-0.583l1.488-1.488l1.488,1.488
			c0.388,0.389,0.898,0.583,1.407,0.583c0.509,0,1.019-0.194,1.408-0.583c0.778-0.778,0.778-2.037,0-2.815L117.663,344.794z"/>
		<path style="fill:#8F3569;" d="M460.937,444.849l1.219-1.219c0.637-0.637,0.637-1.669,0-2.306c-0.637-0.637-1.669-0.637-2.306,0
			l-1.219,1.219l-1.219-1.219c-0.637-0.637-1.669-0.637-2.306,0c-0.637,0.637-0.637,1.669,0,2.306l1.219,1.219l-1.219,1.219
			c-0.637,0.637-0.637,1.669,0,2.306c0.319,0.318,0.736,0.478,1.153,0.478c0.417,0,0.834-0.159,1.153-0.478l1.219-1.219l1.219,1.219
			c0.318,0.318,0.736,0.478,1.153,0.478s0.834-0.159,1.153-0.478c0.637-0.637,0.637-1.669,0-2.306L460.937,444.849z"/>
		<path style="fill:#61BDDB;" d="M413.485,344.545l1.869-1.869c0.977-0.977,0.977-2.559,0-3.535s-2.559-0.977-3.535,0l-1.869,1.869
			l-1.869-1.869c-0.977-0.977-2.559-0.977-3.535,0c-0.976,0.977-0.976,2.559,0,3.535l1.869,1.869l-1.869,1.869
			c-0.976,0.977-0.976,2.559,0,3.535c0.488,0.488,1.128,0.732,1.768,0.732c0.64,0,1.279-0.244,1.768-0.732l1.869-1.869l1.869,1.869
			c0.488,0.488,1.128,0.732,1.767,0.732c0.64,0,1.279-0.244,1.768-0.732c0.977-0.977,0.977-2.559,0-3.535L413.485,344.545z"/>
		<path style="fill:#FF90BA;" d="M245.98,407.832l1.869-1.869c0.977-0.976,0.977-2.559,0-3.535c-0.977-0.977-2.56-0.977-3.536,0
			l-1.869,1.869l-1.869-1.869c-0.977-0.977-2.559-0.977-3.536,0c-0.976,0.977-0.976,2.56,0.001,3.535l1.869,1.869l-1.869,1.869
			c-0.977,0.976-0.977,2.559-0.001,3.535c0.488,0.488,1.129,0.733,1.768,0.733c0.64,0,1.28-0.244,1.768-0.733l1.869-1.869
			l1.869,1.869c0.488,0.488,1.128,0.733,1.767,0.733c0.64,0,1.28-0.244,1.768-0.733c0.976-0.977,0.976-2.559,0-3.535L245.98,407.832
			z"/>
		<g>
			<path style="fill:#8F3569;" d="M83.946,273.489c-3.721,0-6.748-3.028-6.748-6.748c0-3.721,3.027-6.749,6.748-6.749
				c3.721,0,6.749,3.028,6.749,6.749C90.694,270.461,87.667,273.489,83.946,273.489z M83.946,264.213
				c-1.393,0-2.527,1.134-2.527,2.527s1.134,2.527,2.527,2.527c1.394,0,2.527-1.134,2.527-2.527S85.339,264.213,83.946,264.213z"/>
		</g>
		<path style="fill:#61BDDB;" d="M42.12,178.585c0,2.282-1.85,4.132-4.132,4.132c-2.282,0-4.132-1.85-4.132-4.132
			s1.85-4.132,4.132-4.132C40.27,174.452,42.12,176.302,42.12,178.585z"/>
		<path style="fill:#8F3569;" d="M457.63,111.494c0,2.282-1.85,4.132-4.133,4.132s-4.132-1.85-4.132-4.132
			c0-2.282,1.85-4.132,4.132-4.132S457.63,109.212,457.63,111.494z"/>
		<path style="fill:#A7B8FE;" d="M375.033,426.315c0,2.282-1.85,4.133-4.132,4.133c-2.282,0-4.132-1.85-4.132-4.133
			c0-2.282,1.85-4.132,4.132-4.132C373.183,422.183,375.033,424.033,375.033,426.315z"/>
		<path style="fill:#8F3569;" d="M69.649,397.692c0,2.282-1.85,4.133-4.132,4.133c-2.282,0-4.132-1.85-4.132-4.133
			c0-2.282,1.85-4.132,4.132-4.132C67.799,393.56,69.649,395.41,69.649,397.692z"/>
		<g>
			<path style="fill:#FF90BA;" d="M312.546,86.742c-3.396,0-6.159-2.763-6.159-6.159c0-3.396,2.763-6.159,6.159-6.159
				c3.396,0,6.159,2.763,6.159,6.159C318.705,83.979,315.942,86.742,312.546,86.742z M312.546,78.277
				c-1.272,0-2.306,1.035-2.306,2.306s1.035,2.306,2.306,2.306s2.306-1.035,2.306-2.306S313.818,78.277,312.546,78.277z"/>
		</g>
		<g>
			<path style="fill:#61BDDB;" d="M424.986,192.442c-3.472,0-6.298-2.825-6.298-6.298c0-3.472,2.825-6.298,6.298-6.298
				c3.472,0,6.298,2.825,6.298,6.298C431.283,189.617,428.458,192.442,424.986,192.442z M424.986,183.786
				c-1.3,0-2.358,1.058-2.358,2.358c0,1.3,1.058,2.358,2.358,2.358c1.3,0,2.358-1.058,2.358-2.358
				C427.344,184.844,426.286,183.786,424.986,183.786z"/>
		</g>
		<g>
			<path style="fill:#A7B8FE;" d="M153.51,434.843c-3.179,0-5.765-2.586-5.765-5.765c0-3.179,2.586-5.765,5.765-5.765
				c3.179,0,5.765,2.586,5.765,5.765C159.275,432.257,156.688,434.843,153.51,434.843z M153.51,426.919
				c-1.19,0-2.159,0.968-2.159,2.159c0,1.19,0.968,2.159,2.159,2.159c1.19,0,2.159-0.968,2.159-2.159
				C155.668,427.888,154.7,426.919,153.51,426.919z"/>
		</g>
		<g>
			<path style="fill:#FD2D7A;" d="M62.027,60.186c-3.195,0-5.794-2.599-5.794-5.794c0-3.195,2.599-5.794,5.794-5.794
				c3.195,0,5.794,2.599,5.794,5.794C67.821,57.586,65.222,60.186,62.027,60.186z M62.027,52.222c-1.196,0-2.17,0.973-2.17,2.17
				s0.973,2.17,2.17,2.17s2.17-0.973,2.17-2.17S63.223,52.222,62.027,52.222z"/>
		</g>
	</g>
</g>
<g id="DESIGNED_BY_FREEPIK">
	<g>
		<g>
			<path style="fill:#8F3569;" d="M179.552,478.163v-0.161c-0.218,0.249-0.433,0.452-0.644,0.608
				c-0.212,0.157-0.441,0.276-0.689,0.357c-0.247,0.082-0.517,0.122-0.81,0.122c-0.388,0-0.747-0.082-1.078-0.246
				c-0.33-0.164-0.616-0.399-0.857-0.704c-0.242-0.305-0.425-0.662-0.549-1.074c-0.124-0.412-0.187-0.857-0.187-1.335
				c0-1.013,0.247-1.804,0.742-2.369c0.495-0.565,1.146-0.848,1.953-0.848c0.467,0,0.861,0.081,1.181,0.24
				c0.321,0.16,0.633,0.408,0.938,0.739v-2.392c0-0.333,0.066-0.583,0.199-0.754c0.132-0.17,0.321-0.255,0.567-0.255
				c0.245,0,0.434,0.078,0.567,0.234c0.133,0.157,0.199,0.386,0.199,0.691v7.147c0,0.309-0.071,0.54-0.214,0.694
				c-0.142,0.154-0.326,0.231-0.552,0.231c-0.221,0-0.405-0.08-0.549-0.24C179.624,478.688,179.552,478.46,179.552,478.163z
				 M176.364,475.783c0,0.439,0.068,0.813,0.205,1.122c0.137,0.309,0.324,0.541,0.561,0.697c0.238,0.157,0.497,0.236,0.778,0.236
				c0.285,0,0.545-0.075,0.781-0.223c0.235-0.148,0.423-0.376,0.564-0.682c0.141-0.307,0.21-0.691,0.21-1.149
				c0-0.432-0.07-0.803-0.21-1.114c-0.14-0.31-0.33-0.548-0.57-0.712c-0.24-0.164-0.502-0.245-0.786-0.245
				c-0.297,0-0.562,0.084-0.795,0.252c-0.234,0.168-0.415,0.409-0.543,0.724C176.428,475.002,176.364,475.367,176.364,475.783z"/>
			<path style="fill:#8F3569;" d="M186.698,476.193h-3.169c0.004,0.367,0.078,0.692,0.223,0.973
				c0.144,0.281,0.336,0.493,0.576,0.635c0.24,0.143,0.504,0.213,0.793,0.213c0.194,0,0.371-0.022,0.531-0.067
				c0.16-0.046,0.315-0.117,0.466-0.214c0.15-0.096,0.289-0.201,0.415-0.312c0.126-0.111,0.29-0.262,0.493-0.452
				c0.083-0.071,0.202-0.107,0.357-0.107c0.166,0,0.3,0.046,0.403,0.137c0.103,0.092,0.155,0.219,0.155,0.386
				c0,0.147-0.058,0.317-0.172,0.513c-0.116,0.196-0.289,0.384-0.52,0.564c-0.232,0.18-0.522,0.329-0.873,0.448
				c-0.35,0.119-0.753,0.178-1.208,0.178c-1.04,0-1.85-0.297-2.428-0.891c-0.578-0.593-0.866-1.399-0.866-2.416
				c0-0.479,0.071-0.923,0.213-1.332c0.143-0.41,0.351-0.761,0.623-1.054c0.273-0.293,0.609-0.517,1.009-0.674
				c0.4-0.156,0.843-0.234,1.33-0.234c0.633,0,1.176,0.133,1.629,0.4c0.454,0.267,0.794,0.612,1.019,1.035
				c0.225,0.424,0.339,0.856,0.339,1.294c0,0.408-0.117,0.672-0.35,0.794C187.45,476.132,187.122,476.193,186.698,476.193z
				 M183.528,475.272h2.939c-0.039-0.554-0.19-0.969-0.448-1.244c-0.259-0.275-0.6-0.413-1.024-0.413
				c-0.404,0-0.735,0.139-0.994,0.418C183.741,474.313,183.584,474.726,183.528,475.272z"/>
			<path style="fill:#8F3569;" d="M194.082,476.969c0,0.447-0.108,0.831-0.327,1.149c-0.217,0.319-0.539,0.56-0.965,0.725
				c-0.425,0.164-0.943,0.246-1.552,0.246c-0.582,0-1.08-0.089-1.496-0.267c-0.415-0.178-0.722-0.401-0.92-0.667
				c-0.198-0.268-0.297-0.535-0.297-0.805c0-0.178,0.063-0.33,0.19-0.457c0.126-0.126,0.287-0.19,0.481-0.19
				c0.17,0,0.3,0.041,0.391,0.124c0.091,0.083,0.178,0.2,0.261,0.35c0.166,0.29,0.366,0.504,0.597,0.648
				c0.231,0.142,0.547,0.214,0.947,0.214c0.324,0,0.59-0.073,0.798-0.217c0.208-0.145,0.311-0.31,0.311-0.496
				c0-0.285-0.107-0.492-0.324-0.622c-0.216-0.131-0.571-0.256-1.066-0.375c-0.558-0.138-1.012-0.284-1.362-0.436
				c-0.35-0.151-0.63-0.353-0.84-0.602c-0.21-0.25-0.315-0.557-0.315-0.92c0-0.324,0.097-0.631,0.291-0.92
				c0.194-0.288,0.48-0.519,0.859-0.691c0.377-0.173,0.833-0.259,1.367-0.259c0.419,0,0.797,0.043,1.131,0.131
				c0.335,0.086,0.614,0.204,0.837,0.35c0.224,0.146,0.394,0.308,0.51,0.486c0.117,0.178,0.175,0.352,0.175,0.523
				c0,0.186-0.062,0.338-0.186,0.457c-0.125,0.118-0.301,0.178-0.532,0.178c-0.166,0-0.308-0.048-0.424-0.143
				c-0.117-0.095-0.25-0.237-0.401-0.427c-0.123-0.158-0.266-0.285-0.433-0.38c-0.166-0.095-0.392-0.142-0.677-0.142
				c-0.293,0-0.536,0.062-0.73,0.187c-0.194,0.124-0.291,0.279-0.291,0.465c0,0.171,0.071,0.31,0.213,0.419
				c0.143,0.109,0.334,0.2,0.576,0.27c0.242,0.071,0.573,0.158,0.997,0.261c0.502,0.123,0.912,0.27,1.231,0.44
				c0.318,0.17,0.56,0.371,0.725,0.603C194,476.409,194.082,476.672,194.082,476.969z"/>
			<path style="fill:#8F3569;" d="M195.738,471.746c-0.226,0-0.418-0.07-0.579-0.208c-0.16-0.138-0.24-0.334-0.24-0.588
				c0-0.23,0.082-0.418,0.246-0.567c0.164-0.149,0.355-0.223,0.573-0.223c0.21,0,0.396,0.067,0.558,0.202
				c0.162,0.135,0.244,0.33,0.244,0.588c0,0.25-0.08,0.444-0.238,0.585C196.143,471.675,195.955,471.746,195.738,471.746z
				 M196.539,473.42v4.683c0,0.325-0.077,0.571-0.232,0.737c-0.155,0.166-0.35,0.249-0.588,0.249c-0.238,0-0.431-0.085-0.579-0.255
				c-0.149-0.17-0.222-0.414-0.222-0.73v-4.636c0-0.32,0.074-0.561,0.222-0.724c0.148-0.162,0.341-0.243,0.579-0.243
				c0.238,0,0.433,0.081,0.588,0.243C196.462,472.905,196.539,473.131,196.539,473.42z"/>
			<path style="fill:#8F3569;" d="M203.639,473.687v4.707c0,0.538-0.058,1.001-0.173,1.39c-0.114,0.387-0.298,0.708-0.552,0.961
				c-0.253,0.253-0.585,0.441-0.994,0.563c-0.41,0.123-0.919,0.184-1.529,0.184c-0.558,0-1.056-0.078-1.496-0.234
				c-0.439-0.157-0.777-0.358-1.015-0.605c-0.237-0.247-0.357-0.502-0.357-0.763c0-0.198,0.068-0.359,0.202-0.483
				c0.134-0.125,0.297-0.187,0.487-0.187c0.237,0,0.445,0.105,0.623,0.314c0.087,0.107,0.177,0.216,0.27,0.324
				c0.093,0.109,0.197,0.202,0.309,0.28c0.113,0.076,0.249,0.134,0.406,0.172c0.158,0.037,0.341,0.056,0.546,0.056
				c0.42,0,0.745-0.058,0.977-0.175c0.232-0.117,0.394-0.28,0.487-0.49c0.093-0.209,0.147-0.433,0.163-0.673
				c0.016-0.24,0.027-0.624,0.035-1.155c-0.25,0.349-0.537,0.615-0.864,0.797c-0.326,0.182-0.715,0.273-1.166,0.273
				c-0.542,0-1.016-0.138-1.422-0.416c-0.405-0.277-0.717-0.665-0.934-1.163c-0.218-0.499-0.326-1.074-0.326-1.727
				c0-0.486,0.066-0.927,0.198-1.318c0.133-0.393,0.322-0.723,0.567-0.992c0.245-0.269,0.528-0.472,0.849-0.608
				c0.321-0.136,0.673-0.204,1.057-0.204c0.459,0,0.857,0.089,1.193,0.264c0.336,0.177,0.649,0.453,0.938,0.829v-0.22
				c0-0.281,0.069-0.498,0.208-0.653c0.139-0.154,0.317-0.231,0.535-0.231c0.313,0,0.52,0.103,0.623,0.306
				C203.587,473.009,203.639,473.303,203.639,473.687z M198.943,475.741c0,0.657,0.143,1.154,0.43,1.49
				c0.287,0.337,0.658,0.505,1.113,0.505c0.269,0,0.523-0.073,0.762-0.217c0.24-0.145,0.435-0.362,0.585-0.653
				c0.15-0.291,0.226-0.644,0.226-1.06c0-0.66-0.145-1.176-0.436-1.543c-0.291-0.368-0.674-0.552-1.149-0.552
				c-0.463,0-0.834,0.176-1.113,0.529C199.082,474.591,198.943,475.092,198.943,475.741z"/>
			<path style="fill:#8F3569;" d="M206.214,473.396v0.196c0.285-0.376,0.596-0.652,0.935-0.828c0.338-0.176,0.727-0.264,1.166-0.264
				c0.427,0,0.809,0.093,1.146,0.28c0.336,0.186,0.588,0.449,0.753,0.789c0.108,0.198,0.176,0.413,0.208,0.642
				c0.032,0.23,0.048,0.522,0.048,0.879v3.015c0,0.325-0.075,0.571-0.223,0.737c-0.148,0.166-0.341,0.249-0.579,0.249
				c-0.242,0-0.437-0.085-0.588-0.255c-0.151-0.17-0.225-0.414-0.225-0.73v-2.701c0-0.534-0.074-0.943-0.223-1.226
				c-0.149-0.283-0.444-0.425-0.888-0.425c-0.288,0-0.552,0.086-0.789,0.258c-0.237,0.173-0.412,0.41-0.522,0.71
				c-0.079,0.242-0.119,0.692-0.119,1.353v2.03c0,0.328-0.077,0.576-0.228,0.74c-0.152,0.164-0.349,0.246-0.59,0.246
				c-0.234,0-0.426-0.085-0.576-0.255c-0.15-0.17-0.225-0.414-0.225-0.73v-4.683c0-0.309,0.067-0.54,0.202-0.692
				c0.135-0.152,0.319-0.228,0.552-0.228c0.143,0,0.272,0.034,0.387,0.101c0.114,0.068,0.207,0.168,0.276,0.302
				C206.179,473.038,206.214,473.203,206.214,473.396z"/>
			<path style="fill:#8F3569;" d="M216.073,476.193h-3.17c0.004,0.367,0.078,0.692,0.223,0.973c0.144,0.281,0.336,0.493,0.576,0.635
				c0.239,0.143,0.503,0.213,0.792,0.213c0.194,0,0.371-0.022,0.532-0.067c0.16-0.046,0.315-0.117,0.466-0.214
				c0.15-0.096,0.288-0.201,0.416-0.312c0.126-0.111,0.29-0.262,0.492-0.452c0.083-0.071,0.202-0.107,0.356-0.107
				c0.166,0,0.301,0.046,0.404,0.137c0.103,0.092,0.154,0.219,0.154,0.386c0,0.147-0.057,0.317-0.172,0.513
				c-0.115,0.196-0.288,0.384-0.52,0.564c-0.232,0.18-0.522,0.329-0.872,0.448c-0.35,0.119-0.753,0.178-1.208,0.178
				c-1.041,0-1.85-0.297-2.428-0.891c-0.577-0.593-0.866-1.399-0.866-2.416c0-0.479,0.071-0.923,0.214-1.332
				c0.143-0.41,0.351-0.761,0.624-1.054c0.273-0.293,0.609-0.517,1.009-0.674c0.399-0.156,0.843-0.234,1.33-0.234
				c0.633,0,1.176,0.133,1.629,0.4c0.453,0.267,0.793,0.612,1.019,1.035c0.225,0.424,0.338,0.856,0.338,1.294
				c0,0.408-0.117,0.672-0.35,0.794C216.825,476.132,216.497,476.193,216.073,476.193z M212.903,475.272h2.938
				c-0.039-0.554-0.189-0.969-0.448-1.244c-0.259-0.275-0.6-0.413-1.024-0.413c-0.404,0-0.736,0.139-0.995,0.418
				C213.115,474.313,212.959,474.726,212.903,475.272z"/>
			<path style="fill:#8F3569;" d="M222.679,478.163v-0.161c-0.218,0.249-0.432,0.452-0.644,0.608
				c-0.212,0.157-0.441,0.276-0.688,0.357c-0.247,0.082-0.517,0.122-0.81,0.122c-0.389,0-0.747-0.082-1.078-0.246
				c-0.331-0.164-0.616-0.399-0.858-0.704c-0.242-0.305-0.424-0.662-0.549-1.074c-0.125-0.412-0.187-0.857-0.187-1.335
				c0-1.013,0.247-1.804,0.742-2.369c0.495-0.565,1.146-0.848,1.953-0.848c0.467,0,0.861,0.081,1.181,0.24
				c0.32,0.16,0.633,0.408,0.938,0.739v-2.392c0-0.333,0.066-0.583,0.199-0.754c0.132-0.17,0.322-0.255,0.567-0.255
				c0.245,0,0.434,0.078,0.567,0.234c0.133,0.157,0.199,0.386,0.199,0.691v7.147c0,0.309-0.071,0.54-0.214,0.694
				c-0.143,0.154-0.326,0.231-0.552,0.231c-0.222,0-0.405-0.08-0.549-0.24C222.751,478.688,222.679,478.46,222.679,478.163z
				 M219.492,475.783c0,0.439,0.068,0.813,0.204,1.122c0.137,0.309,0.324,0.541,0.562,0.697c0.237,0.157,0.496,0.236,0.777,0.236
				c0.285,0,0.546-0.075,0.781-0.223c0.236-0.148,0.424-0.376,0.564-0.682c0.141-0.307,0.211-0.691,0.211-1.149
				c0-0.432-0.07-0.803-0.211-1.114c-0.14-0.31-0.33-0.548-0.57-0.712c-0.24-0.164-0.502-0.245-0.787-0.245
				c-0.296,0-0.562,0.084-0.795,0.252c-0.233,0.168-0.414,0.409-0.543,0.724C219.556,475.002,219.492,475.367,219.492,475.783z"/>
			<path style="fill:#8F3569;" d="M229.303,471.016v2.475c0.304-0.316,0.615-0.559,0.932-0.727c0.316-0.168,0.709-0.252,1.175-0.252
				c0.538,0,1.01,0.128,1.416,0.382c0.405,0.256,0.72,0.626,0.944,1.111c0.223,0.484,0.336,1.06,0.336,1.725
				c0,0.491-0.063,0.94-0.187,1.35c-0.125,0.41-0.306,0.765-0.543,1.065c-0.238,0.301-0.525,0.534-0.864,0.698
				c-0.339,0.164-0.712,0.246-1.119,0.246c-0.25,0-0.484-0.029-0.703-0.089c-0.22-0.059-0.407-0.137-0.561-0.234
				c-0.154-0.096-0.286-0.197-0.395-0.3c-0.109-0.103-0.253-0.258-0.431-0.463v0.161c0,0.305-0.073,0.535-0.22,0.692
				c-0.146,0.156-0.332,0.234-0.558,0.234c-0.23,0-0.413-0.078-0.549-0.234c-0.137-0.157-0.205-0.388-0.205-0.692v-7.077
				c0-0.328,0.066-0.577,0.198-0.745c0.133-0.168,0.318-0.252,0.555-0.252c0.25,0,0.441,0.08,0.576,0.24
				C229.235,470.491,229.303,470.718,229.303,471.016z M229.38,475.83c0,0.645,0.147,1.14,0.442,1.486
				c0.295,0.347,0.682,0.521,1.161,0.521c0.407,0,0.759-0.177,1.053-0.532c0.295-0.355,0.442-0.862,0.442-1.523
				c0-0.427-0.061-0.796-0.184-1.104c-0.123-0.309-0.297-0.548-0.522-0.715c-0.226-0.168-0.489-0.252-0.79-0.252
				c-0.309,0-0.584,0.084-0.825,0.252c-0.242,0.168-0.431,0.411-0.57,0.73C229.449,475.011,229.38,475.391,229.38,475.83z"/>
			<path style="fill:#8F3569;" d="M236.207,479.291l0.148-0.363l-1.995-5.022c-0.122-0.288-0.184-0.499-0.184-0.629
				c0-0.139,0.036-0.267,0.107-0.385c0.071-0.119,0.169-0.214,0.294-0.285c0.125-0.072,0.255-0.107,0.389-0.107
				c0.233,0,0.409,0.075,0.529,0.223c0.119,0.148,0.223,0.361,0.314,0.638l1.372,3.989l1.3-3.71c0.103-0.3,0.196-0.536,0.279-0.706
				c0.083-0.17,0.171-0.285,0.264-0.344c0.093-0.06,0.225-0.09,0.395-0.09c0.123,0,0.24,0.032,0.353,0.098
				c0.113,0.065,0.2,0.153,0.261,0.264c0.061,0.111,0.092,0.227,0.092,0.35c-0.016,0.075-0.041,0.182-0.077,0.321
				c-0.036,0.138-0.079,0.279-0.13,0.421l-2.113,5.533c-0.183,0.487-0.361,0.868-0.535,1.145c-0.174,0.277-0.404,0.491-0.692,0.638
				c-0.287,0.149-0.674,0.223-1.161,0.223c-0.475,0-0.831-0.051-1.068-0.154c-0.238-0.104-0.356-0.292-0.356-0.565
				c0-0.186,0.056-0.33,0.169-0.43c0.112-0.101,0.28-0.152,0.501-0.152c0.087,0,0.173,0.012,0.256,0.037
				c0.103,0.023,0.192,0.035,0.267,0.035c0.186,0,0.333-0.028,0.44-0.084c0.106-0.055,0.202-0.151,0.288-0.288
				C235.998,479.757,236.096,479.556,236.207,479.291z"/>
		</g>
		<g>
			<path style="fill:#8F3569;" d="M259.683,472.64h0.386v-0.487c0-0.509,0.062-0.911,0.192-1.211
				c0.128-0.299,0.347-0.516,0.654-0.653c0.307-0.135,0.727-0.204,1.26-0.204c0.95,0,1.42,0.23,1.42,0.697
				c0,0.149-0.049,0.278-0.15,0.385c-0.096,0.106-0.214,0.16-0.349,0.16c-0.062,0-0.174-0.012-0.329-0.037
				c-0.148-0.021-0.283-0.035-0.389-0.035c-0.292,0-0.479,0.088-0.566,0.259c-0.079,0.172-0.122,0.418-0.122,0.74v0.386h0.396
				c0.62,0,0.926,0.185,0.926,0.56c0,0.262-0.079,0.432-0.245,0.503c-0.163,0.071-0.39,0.107-0.68,0.107h-0.396v4.294
				c0,0.319-0.075,0.563-0.231,0.73c-0.151,0.17-0.346,0.254-0.589,0.254c-0.229,0-0.419-0.084-0.574-0.254
				c-0.153-0.167-0.228-0.411-0.228-0.73v-4.294h-0.446c-0.243,0-0.427-0.052-0.558-0.164c-0.131-0.107-0.197-0.25-0.197-0.423
				C258.869,472.832,259.14,472.64,259.683,472.64"/>
			<path style="fill:#8F3569;" d="M264.989,476.749v1.355c0,0.327-0.083,0.574-0.234,0.737c-0.154,0.166-0.349,0.247-0.586,0.247
				c-0.239,0-0.43-0.082-0.579-0.25c-0.148-0.165-0.225-0.41-0.225-0.734v-4.514c0-0.729,0.262-1.093,0.788-1.093
				c0.271,0,0.464,0.084,0.583,0.255c0.119,0.171,0.184,0.421,0.198,0.755c0.192-0.334,0.39-0.584,0.593-0.755
				c0.208-0.171,0.477-0.255,0.819-0.255c0.343,0,0.67,0.084,0.991,0.255c0.322,0.171,0.482,0.398,0.482,0.678
				c0,0.197-0.069,0.363-0.204,0.488c-0.137,0.131-0.284,0.195-0.441,0.195c-0.062,0-0.207-0.039-0.433-0.112
				c-0.228-0.071-0.43-0.108-0.602-0.108c-0.237,0-0.433,0.064-0.582,0.186c-0.151,0.128-0.269,0.311-0.353,0.554
				c-0.081,0.247-0.137,0.541-0.17,0.878C265.003,475.849,264.989,476.262,264.989,476.749"/>
			<path style="fill:#8F3569;" d="M272.44,476.191h-3.171c0.005,0.367,0.077,0.694,0.222,0.974c0.147,0.279,0.337,0.491,0.578,0.635
				c0.24,0.142,0.502,0.212,0.793,0.212c0.194,0,0.371-0.021,0.531-0.07c0.159-0.043,0.316-0.116,0.466-0.213
				c0.151-0.095,0.288-0.199,0.415-0.313c0.126-0.109,0.292-0.26,0.494-0.449c0.084-0.071,0.203-0.109,0.355-0.109
				c0.168,0,0.301,0.046,0.406,0.139c0.104,0.092,0.152,0.219,0.152,0.386c0,0.147-0.055,0.317-0.167,0.512
				c-0.117,0.198-0.289,0.385-0.522,0.566c-0.234,0.178-0.524,0.33-0.873,0.446c-0.35,0.119-0.754,0.179-1.207,0.179
				c-1.044,0-1.852-0.295-2.429-0.889c-0.578-0.595-0.87-1.401-0.87-2.418c0-0.479,0.073-0.924,0.217-1.334
				c0.14-0.411,0.349-0.76,0.624-1.055c0.272-0.294,0.606-0.518,1.008-0.674c0.399-0.156,0.842-0.234,1.33-0.234
				c0.632,0,1.175,0.134,1.629,0.404c0.452,0.264,0.796,0.61,1.018,1.034c0.226,0.426,0.339,0.855,0.339,1.296
				c0,0.405-0.118,0.669-0.351,0.791C273.191,476.13,272.863,476.191,272.44,476.191 M269.268,475.269h2.938
				c-0.039-0.553-0.186-0.969-0.446-1.241c-0.261-0.277-0.599-0.413-1.025-0.413c-0.403,0-0.735,0.137-0.995,0.418
				C269.481,474.312,269.323,474.724,269.268,475.269"/>
			<path style="fill:#8F3569;" d="M279.182,476.191h-3.171c0.004,0.367,0.078,0.694,0.221,0.974
				c0.145,0.279,0.337,0.491,0.576,0.635c0.239,0.142,0.504,0.212,0.795,0.212c0.192,0,0.37-0.021,0.528-0.07
				c0.162-0.043,0.316-0.116,0.469-0.213c0.151-0.095,0.287-0.199,0.415-0.313c0.125-0.109,0.29-0.26,0.493-0.449
				c0.084-0.071,0.204-0.109,0.355-0.109c0.168,0,0.302,0.046,0.407,0.139c0.103,0.092,0.15,0.219,0.15,0.386
				c0,0.147-0.054,0.317-0.171,0.512c-0.11,0.198-0.284,0.385-0.519,0.566c-0.231,0.178-0.525,0.33-0.872,0.446
				c-0.349,0.119-0.755,0.179-1.209,0.179c-1.042,0-1.849-0.295-2.429-0.889c-0.577-0.595-0.868-1.401-0.868-2.418
				c0-0.479,0.073-0.924,0.217-1.334c0.142-0.411,0.349-0.76,0.623-1.055c0.272-0.294,0.608-0.518,1.009-0.674
				c0.398-0.156,0.844-0.234,1.331-0.234c0.63,0,1.174,0.134,1.633,0.404c0.45,0.264,0.791,0.61,1.013,1.034
				c0.225,0.426,0.341,0.855,0.341,1.296c0,0.405-0.12,0.669-0.351,0.791C279.932,476.13,279.604,476.191,279.182,476.191
				 M276.011,475.269h2.938c-0.04-0.553-0.19-0.969-0.447-1.241c-0.263-0.277-0.601-0.413-1.027-0.413
				c-0.403,0-0.735,0.137-0.996,0.418C276.222,474.312,276.063,474.724,276.011,475.269"/>
			<path style="fill:#8F3569;" d="M282.732,473.408v0.194c0.304-0.375,0.621-0.651,0.953-0.828c0.324-0.178,0.699-0.267,1.114-0.267
				c0.497,0,0.96,0.13,1.379,0.386c0.419,0.259,0.749,0.635,0.993,1.129c0.244,0.497,0.366,1.081,0.366,1.758
				c0,0.497-0.07,0.957-0.21,1.376c-0.14,0.417-0.336,0.767-0.58,1.05c-0.246,0.281-0.535,0.501-0.868,0.654
				c-0.339,0.151-0.695,0.227-1.08,0.227c-0.461,0-0.853-0.093-1.166-0.28c-0.314-0.183-0.614-0.458-0.901-0.816v2.433
				c0,0.71-0.26,1.069-0.778,1.069c-0.306,0-0.505-0.092-0.607-0.275c-0.095-0.187-0.146-0.452-0.146-0.807v-6.996
				c0-0.309,0.067-0.537,0.2-0.692c0.134-0.15,0.32-0.228,0.553-0.228c0.231,0,0.416,0.078,0.56,0.234
				C282.661,472.889,282.732,473.112,282.732,473.408 M285.909,475.763c0-0.428-0.067-0.796-0.197-1.102
				c-0.131-0.308-0.312-0.542-0.541-0.705c-0.229-0.164-0.489-0.248-0.77-0.248c-0.446,0-0.824,0.178-1.13,0.527
				c-0.308,0.354-0.462,0.872-0.462,1.558c0,0.642,0.153,1.146,0.46,1.504c0.305,0.358,0.679,0.536,1.133,0.536
				c0.268,0,0.519-0.079,0.748-0.233c0.232-0.158,0.416-0.392,0.552-0.704C285.839,476.584,285.909,476.205,285.909,475.763"/>
			<path style="fill:#8F3569;" d="M289.169,471.742c-0.226,0-0.418-0.071-0.577-0.209c-0.162-0.139-0.242-0.333-0.242-0.585
				c0-0.23,0.082-0.419,0.248-0.569c0.164-0.146,0.354-0.222,0.571-0.222c0.212,0,0.397,0.067,0.559,0.2
				c0.162,0.137,0.244,0.334,0.244,0.591c0,0.25-0.079,0.444-0.236,0.585C289.577,471.671,289.389,471.742,289.169,471.742
				 M289.972,473.416v4.689c0,0.322-0.077,0.568-0.231,0.732c-0.156,0.168-0.35,0.25-0.588,0.25c-0.238,0-0.428-0.084-0.58-0.254
				c-0.146-0.173-0.222-0.416-0.222-0.729v-4.642c0-0.319,0.076-0.559,0.222-0.721c0.152-0.165,0.342-0.245,0.58-0.245
				c0.238,0,0.432,0.079,0.588,0.245C289.894,472.903,289.972,473.13,289.972,473.416"/>
			<path style="fill:#8F3569;" d="M295.196,478.348l-1.428-2.354l-0.88,0.83v1.291c0,0.312-0.083,0.551-0.248,0.718
				c-0.16,0.17-0.354,0.254-0.566,0.254c-0.249,0-0.447-0.082-0.588-0.25c-0.142-0.165-0.215-0.41-0.215-0.734v-6.915
				c0-0.358,0.071-0.632,0.207-0.821c0.139-0.19,0.341-0.283,0.596-0.283c0.25,0,0.445,0.086,0.593,0.257
				c0.146,0.169,0.221,0.421,0.221,0.751v3.933l1.822-1.914c0.227-0.235,0.396-0.4,0.517-0.486c0.118-0.087,0.262-0.13,0.431-0.13
				c0.204,0,0.371,0.065,0.51,0.193c0.132,0.129,0.2,0.291,0.2,0.483c0,0.237-0.221,0.555-0.659,0.951l-0.861,0.789l1.662,2.614
				c0.121,0.196,0.212,0.34,0.265,0.441c0.052,0.099,0.081,0.2,0.081,0.289c0,0.258-0.071,0.459-0.213,0.61
				c-0.14,0.148-0.327,0.221-0.554,0.221c-0.198,0-0.352-0.051-0.458-0.16C295.526,478.82,295.377,478.625,295.196,478.348"/>
			<path style="fill:#8F3569;" d="M298.718,479.088c-0.245,0-0.455-0.079-0.634-0.238c-0.178-0.156-0.268-0.378-0.268-0.665
				c0-0.241,0.086-0.449,0.256-0.622c0.172-0.174,0.38-0.262,0.63-0.262c0.248,0,0.46,0.087,0.639,0.258
				c0.174,0.172,0.264,0.383,0.264,0.626c0,0.283-0.089,0.505-0.264,0.662C299.163,479.009,298.955,479.088,298.718,479.088"/>
			<path style="fill:#8F3569;" d="M306.78,477.081c0,0.2-0.06,0.418-0.182,0.646c-0.12,0.231-0.305,0.449-0.553,0.656
				c-0.247,0.208-0.557,0.377-0.935,0.502c-0.375,0.126-0.8,0.192-1.269,0.192c-1.004,0-1.786-0.293-2.349-0.876
				c-0.56-0.585-0.841-1.368-0.841-2.35c0-0.667,0.128-1.254,0.387-1.765c0.254-0.509,0.628-0.905,1.113-1.184
				c0.487-0.28,1.072-0.419,1.746-0.419c0.421,0,0.805,0.061,1.158,0.184c0.35,0.122,0.645,0.282,0.891,0.474
				c0.242,0.197,0.428,0.402,0.556,0.62c0.129,0.22,0.192,0.426,0.192,0.617c0,0.192-0.071,0.357-0.214,0.492
				c-0.147,0.134-0.322,0.203-0.524,0.203c-0.137,0-0.249-0.035-0.338-0.104c-0.09-0.07-0.19-0.181-0.299-0.339
				c-0.198-0.299-0.404-0.526-0.622-0.674c-0.214-0.152-0.488-0.226-0.821-0.226c-0.476,0-0.865,0.186-1.159,0.561
				c-0.292,0.372-0.44,0.888-0.44,1.534c0,0.305,0.039,0.587,0.114,0.842c0.073,0.254,0.182,0.472,0.325,0.652
				c0.144,0.179,0.315,0.315,0.516,0.409c0.203,0.096,0.425,0.141,0.665,0.141c0.326,0,0.604-0.075,0.836-0.225
				c0.235-0.151,0.439-0.38,0.616-0.689c0.099-0.182,0.204-0.323,0.318-0.427c0.114-0.102,0.256-0.156,0.422-0.156
				c0.198,0,0.363,0.077,0.491,0.227C306.714,476.75,306.78,476.912,306.78,477.081"/>
			<path style="fill:#8F3569;" d="M313.774,475.793c0,0.481-0.076,0.928-0.222,1.337c-0.154,0.408-0.37,0.758-0.656,1.049
				c-0.284,0.293-0.626,0.518-1.02,0.675c-0.4,0.154-0.844,0.234-1.337,0.234c-0.491,0-0.933-0.08-1.326-0.239
				c-0.389-0.156-0.732-0.384-1.016-0.676c-0.288-0.298-0.505-0.646-0.657-1.048c-0.143-0.402-0.219-0.847-0.219-1.332
				c0-0.491,0.077-0.941,0.224-1.349c0.151-0.409,0.368-0.758,0.649-1.046c0.282-0.289,0.621-0.511,1.019-0.669
				c0.402-0.156,0.844-0.234,1.326-0.234c0.49,0,0.936,0.078,1.337,0.239c0.398,0.157,0.739,0.384,1.027,0.674
				c0.286,0.297,0.502,0.643,0.65,1.045C313.699,474.861,313.774,475.305,313.774,475.793 M312.147,475.793
				c0-0.662-0.146-1.176-0.436-1.543c-0.289-0.372-0.681-0.555-1.171-0.555c-0.317,0-0.597,0.082-0.839,0.246
				c-0.242,0.163-0.425,0.406-0.556,0.727c-0.131,0.321-0.197,0.696-0.197,1.124c0,0.424,0.064,0.792,0.194,1.108
				c0.13,0.319,0.314,0.561,0.553,0.729c0.241,0.167,0.522,0.253,0.845,0.253c0.49,0,0.882-0.185,1.171-0.557
				C312,476.957,312.147,476.444,312.147,475.793"/>
			<path style="fill:#8F3569;" d="M319.956,475.913v2.154c0,0.342-0.075,0.594-0.231,0.767c-0.156,0.17-0.357,0.255-0.611,0.255
				c-0.245,0-0.446-0.085-0.595-0.255c-0.154-0.173-0.232-0.425-0.232-0.767v-2.582c0-0.408-0.013-0.726-0.04-0.953
				c-0.029-0.221-0.105-0.41-0.226-0.552c-0.123-0.147-0.318-0.22-0.582-0.22c-0.532,0-0.879,0.181-1.048,0.551
				c-0.167,0.36-0.254,0.883-0.254,1.567v2.189c0,0.336-0.076,0.591-0.226,0.765c-0.156,0.171-0.355,0.258-0.603,0.258
				c-0.247,0-0.448-0.087-0.604-0.258c-0.157-0.173-0.235-0.428-0.235-0.765v-4.637c0-0.306,0.07-0.538,0.209-0.695
				c0.143-0.16,0.329-0.239,0.556-0.239c0.223,0,0.407,0.077,0.557,0.222c0.148,0.149,0.222,0.354,0.222,0.615v0.153
				c0.283-0.334,0.584-0.582,0.903-0.738c0.323-0.162,0.676-0.241,1.07-0.241c0.407,0,0.757,0.082,1.049,0.244
				c0.293,0.163,0.533,0.41,0.725,0.735c0.275-0.33,0.568-0.577,0.881-0.738c0.313-0.161,0.658-0.241,1.039-0.241
				c0.441,0,0.826,0.089,1.146,0.262c0.319,0.174,0.558,0.425,0.717,0.747c0.138,0.295,0.206,0.756,0.206,1.385v3.164
				c0,0.342-0.076,0.594-0.229,0.767c-0.154,0.17-0.359,0.255-0.612,0.255c-0.247,0-0.446-0.087-0.603-0.258
				c-0.156-0.173-0.235-0.428-0.235-0.765v-2.726c0-0.349-0.015-0.627-0.043-0.836c-0.029-0.211-0.11-0.388-0.239-0.529
				c-0.132-0.142-0.331-0.215-0.596-0.215c-0.214,0-0.416,0.066-0.609,0.192c-0.192,0.124-0.342,0.298-0.45,0.508
				C320.018,474.734,319.956,475.219,319.956,475.913"/>
		</g>
		<g>
			<path style="fill:#8F3569;" d="M244.516,475.401c-0.001-0.003-0.001-0.006-0.001-0.011
				C244.515,475.395,244.515,475.398,244.516,475.401z"/>
			<path style="fill:#8F3569;" d="M244.598,475.919c0.001,0,0.001,0,0.001,0c-0.031-0.148-0.055-0.294-0.074-0.439
				C244.544,475.626,244.568,475.773,244.598,475.919z"/>
			<path style="fill:#8F3569;" d="M245.134,477.423c-0.004-0.006-0.007-0.013-0.011-0.021
				C245.127,477.41,245.13,477.417,245.134,477.423z"/>
			<path style="fill:#8F3569;" d="M245.083,477.323c-0.014-0.027-0.027-0.056-0.041-0.084
				C245.055,477.269,245.069,477.296,245.083,477.323z"/>
			<path style="fill:#8F3569;" d="M244.748,476.498c0.079,0.25,0.175,0.493,0.286,0.724c-0.113-0.236-0.206-0.479-0.283-0.724
				C244.75,476.498,244.749,476.498,244.748,476.498z"/>
			<path style="fill:#8F3569;" d="M250.789,469.191c0.313,0,0.544,0.025,0.809,0.069l0.075-0.477c0,0-0.732-0.225-1.694-0.147
				l-0.076-0.259c0.299-0.063,0.524-0.329,0.524-0.646c0-0.364-0.296-0.659-0.661-0.659c-0.364,0-0.66,0.295-0.66,0.659
				c0,0.317,0.224,0.583,0.522,0.646l0.084,0.289c-1.021,0.14-1.834,0.539-1.834,0.539l0.144,0.441
				c0.618-0.206,1.154-0.331,1.64-0.383C250.139,469.213,250.497,469.191,250.789,469.191z"/>
			<path style="fill:#8F3569;" d="M245.122,471.602l0.004-0.005c0.024-0.031,0.047-0.06,0.071-0.089l-0.196-0.141l-0.305-0.223
				c-0.017,0.024-0.497,0.465-0.876,1.28c-0.016-0.026-0.035-0.051-0.056-0.074c-0.114-0.124-0.272-0.187-0.474-0.184
				c-0.003,0-0.006,0-0.009,0c-0.125,0-0.21-0.042-0.267-0.092c0.056-0.071,0.089-0.16,0.089-0.258c0-0.23-0.187-0.418-0.418-0.418
				c-0.23,0-0.418,0.188-0.418,0.418c0,0.231,0.187,0.418,0.418,0.418c0.036,0,0.071-0.006,0.104-0.013
				c0.103,0.114,0.266,0.214,0.505,0.209c0.123-0.001,0.213,0.03,0.273,0.097c0.069,0.076,0.093,0.185,0.1,0.267
				c-0.001,0.001-0.001,0.003-0.002,0.003c-0.272,0.743-0.194,1.669-0.194,1.669l0.661,0.026c0.013-0.337,0.062-0.926,0.232-1.394
				C244.693,472.192,245.105,471.626,245.122,471.602z"/>
			<path style="fill:#8F3569;" d="M256.539,469.743c-0.23,0-0.418,0.187-0.418,0.418c0,0.036,0.005,0.07,0.015,0.103
				c-0.115,0.104-0.214,0.267-0.211,0.507c0.002,0.123-0.03,0.212-0.096,0.273c-0.053,0.047-0.12,0.072-0.185,0.088
				c-0.492-0.689-1.097-1.11-1.097-1.11l-0.474,0.508c0.358,0.326,0.725,0.734,1.08,1.244c0.246,0.352,0.499,0.806,0.71,1.259
				l0.64-0.304c0,0-0.292-0.722-0.704-1.37c0.072-0.025,0.144-0.064,0.207-0.12c0.125-0.113,0.187-0.273,0.183-0.474
				c-0.001-0.13,0.042-0.218,0.093-0.276c0.071,0.054,0.16,0.089,0.257,0.089c0.232,0,0.419-0.187,0.419-0.418
				C256.958,469.93,256.771,469.743,256.539,469.743z"/>
			<path style="fill:#8F3569;" d="M254.878,475.494c-0.881,0.429-2.33,0.996-4.238,1.262c-0.749,0.104-1.475,0.142-2.143,0.142
				c-0.869,0-1.637-0.065-2.227-0.139c-0.673-0.085-1.199-0.189-1.52-0.261c0.077,0.245,0.171,0.488,0.283,0.724
				c0.002,0.006,0.005,0.013,0.008,0.017c0.013,0.027,0.027,0.056,0.041,0.084c0.013,0.027,0.027,0.054,0.041,0.079
				c0.004,0.007,0.007,0.015,0.011,0.021c0.189,0.357,0.417,0.684,0.675,0.968c0.9,0.984,1.817,1.14,1.826,1.141l0.014,0.002
				l0.013,0.005c0.008,0.003,0.821,0.265,2.057,0.265c1.216,0,2.409-0.245,3.546-0.729c0.842-0.431,1.639-1.085,2.034-1.669
				c0.305-0.452,0.525-0.933,0.656-1.434c0.07-0.266,0.124-0.692,0.092-1.141C255.8,474.999,255.408,475.236,254.878,475.494z"/>
			<path style="fill:#8F3569;" d="M245.405,471.811c-0.026,0.037-0.408,0.578-0.709,1.408c-0.226,0.622-0.216,1.527-0.216,1.538
				v0.002c0,0.212,0.012,0.423,0.035,0.632c0,0.005,0,0.008,0.001,0.011c0.002,0.027,0.007,0.052,0.009,0.079
				c0.019,0.145,0.043,0.291,0.074,0.439c0.438,0.111,3.049,0.72,5.968,0.314c1.829-0.255,3.218-0.795,4.062-1.204
				c0.701-0.34,1.151-0.648,1.325-0.774c-0.173-0.643-0.651-1.65-1.09-2.279c-1.253-1.791-2.604-2.25-3.298-2.365
				c-0.265-0.043-0.477-0.068-0.777-0.068c-0.28,0-0.626,0.022-1.089,0.071c-0.464,0.048-0.982,0.17-1.583,0.372
				c-0.842,0.282-1.605,0.724-2.204,1.28l-0.021,0.019C245.804,471.367,245.618,471.539,245.405,471.811z M253.073,471.394
				c0.601,0,1.09,0.488,1.09,1.09c0,0.601-0.489,1.09-1.09,1.09c-0.601,0-1.089-0.489-1.089-1.09
				C251.984,471.882,252.472,471.394,253.073,471.394z M247.922,471.351c0.973,0,1.76,0.789,1.76,1.761s-0.788,1.759-1.76,1.759
				c-0.972,0-1.76-0.787-1.76-1.759S246.951,471.351,247.922,471.351z"/>
		</g>
	</g>
</g>
</svg>
